<?xml version="1.0" encoding="utf-8"?>
<!-- Generator: Adobe Illustrator 19.2.1, SVG Export Plug-In . SVG Version: 6.00 Build 0)  -->
<!DOCTYPE svg PUBLIC "-//W3C//DTD SVG 1.1//EN" "http://www.w3.org/Graphics/SVG/1.1/DTD/svg11.dtd">
<svg version="1.1" id="Calque_1" xmlns="http://www.w3.org/2000/svg" xmlns:xlink="http://www.w3.org/1999/xlink" x="0px" y="0px"
	 viewBox="0 0 102.9 94.7" style="enable-background:new 0 0 102.9 94.7;" xml:space="preserve">
<style type="text/css">
	.st0{fill:#FFFFFF;}
	.st1{fill:none;stroke:#000000;stroke-width:3.3901;stroke-miterlimit:10;}
	.st2{fill:#E94E1B;}
</style>
<g>
	<path class="st0" d="M11,10l80.4-8.2c5.2-0.5,9.4,3.3,9.4,8.5l0.3,62c0,5.2-4.1,9.9-9.3,10.4l-80.4,8.2c-5.2,0.5-9.4-3.3-9.4-8.5
		l-0.3-62C1.7,15.1,5.8,10.5,11,10z"/>
	<path class="st1" d="M11,10l80.4-8.2c5.2-0.5,9.4,3.3,9.4,8.5l0.3,62c0,5.2-4.1,9.9-9.3,10.4l-80.4,8.2c-5.2,0.5-9.4-3.3-9.4-8.5
		l-0.3-62C1.7,15.1,5.8,10.5,11,10z"/>
</g>
<g>
	<path d="M24.4,69.9L12,71.2l7.7-8.7L12,54.8l25.5-2.7c-1.8,1.3-3.9,2.5-6.3,3.6c-2.3,1.1-4.6,2-6.9,2.6L24.4,69.9z M27.2,58.7
		l0,21.9l-2,0.2l0-21.9c4.1-1.3,8.3-3.3,12.5-6C35.1,55.1,31.5,57,27.2,58.7z M28.9,58.6l-1.5,0.2c3.2-1.2,6.7-2.9,10.3-5.3
		C35.5,55.2,32.6,56.9,28.9,58.6z M30.5,58.4l-1.1,0.1c2.5-1,5.2-2.5,8.4-4.5C36.1,55.4,33.6,56.9,30.5,58.4z M31.8,58.3l-0.8,0.1
		c1.9-0.9,4.1-2.1,6.8-3.8C36.4,55.7,34.4,56.9,31.8,58.3z M33.1,58.1l-0.5,0.1c1.5-0.7,3.2-1.8,5.3-3.1
		C36.7,56.1,35.1,57.1,33.1,58.1z M34.3,58l-0.4,0c1.2-0.6,2.5-1.5,4-2.5C36.9,56.4,35.7,57.2,34.3,58z M35.4,57.9l-0.2,0
		c1-0.6,2-1.2,2.8-1.8C37.3,56.8,36.4,57.3,35.4,57.9z M36.5,57.8l-0.2,0c0.4-0.3,0.9-0.6,1.7-1.1C37.4,57.2,36.9,57.6,36.5,57.8z
		 M37.5,57.7l-0.1,0l0.5-0.3L37.5,57.7z"/>
	<path d="M26.9,58.8l9.3-1l0,21.9l-9.3,1L26.9,58.8z M27.7,77.4c0,0.4,0.1,0.8,0.4,1c0.3,0.3,0.6,0.4,1,0.3l4.8-0.5
		c0.4,0,0.8-0.2,1-0.6c0.3-0.3,0.4-0.7,0.4-1.2l0-5.9l-2.7,0.3l0,4.3c0,0.4-0.1,0.5-0.4,0.6L30.8,76c-0.3,0-0.4-0.1-0.4-0.5l0-12.3
		c0-0.4,0.1-0.5,0.4-0.6l1.5-0.2c0.3,0,0.4,0.1,0.4,0.5l0,2.9l2.7-0.3l0-4.5c0-0.4-0.1-0.8-0.4-1c-0.3-0.3-0.6-0.4-1-0.3l-4.7,0.5
		c-0.4,0-0.8,0.2-1,0.6c-0.3,0.3-0.4,0.7-0.4,1.2L27.7,77.4z"/>
	<path d="M35.9,57.8l9.3-1l0,21.9l-9.3,1L35.9,57.8z M36.7,76.4c0,0.4,0.1,0.8,0.4,1.1c0.3,0.3,0.6,0.4,1,0.4l4.7-0.5
		c0.4,0,0.8-0.2,1-0.6c0.3-0.3,0.4-0.7,0.4-1.1l0-15.5c0-0.4-0.1-0.8-0.4-1.1c-0.3-0.3-0.6-0.4-1-0.4l-4.8,0.5c-0.4,0-0.8,0.2-1,0.6
		c-0.3,0.3-0.4,0.7-0.4,1.1L36.7,76.4z M41.7,62l0,12.3c0,0.1,0,0.3-0.1,0.4c-0.1,0.1-0.2,0.2-0.3,0.2L39.8,75
		c-0.3,0-0.4-0.1-0.4-0.5l0-12.3c0-0.4,0.1-0.5,0.4-0.6l1.5-0.2C41.6,61.5,41.7,61.7,41.7,62z"/>
	<path d="M44.9,56.9l11.9-1.2l0,21.9L45,78.8L44.9,56.9z M52.8,57.7l-1.9,9L49.3,58l-3.6,0.4l0,18.7l2.6-0.3l0-10.8L51,76.6
		l2.4-11.2l0,10.9l2.7-0.3l0-18.7L52.8,57.7z"/>
	<path d="M56.5,55.7l4.3-0.4l0,21.9l-4.3,0.4L56.5,55.7z M60.1,75.6l0-18.7l-2.7,0.3l0,18.7L60.1,75.6z"/>
	<path d="M60.6,55.3l9.3-1l0,21.9l-9.3,1L60.6,55.3z M61.4,73.9c0,0.4,0.1,0.8,0.4,1c0.3,0.3,0.6,0.4,1,0.3l4.8-0.5
		c0.4,0,0.8-0.2,1-0.6c0.3-0.3,0.4-0.7,0.4-1.2l0-5.9l-2.7,0.3l0,4.3c0,0.4-0.1,0.5-0.4,0.6l-1.5,0.2c-0.3,0-0.4-0.1-0.4-0.5l0-12.3
		c0-0.4,0.1-0.5,0.4-0.6L66,59c0.3,0,0.4,0.1,0.4,0.5l0,2.9L69,62l0-4.5c0-0.4-0.1-0.8-0.4-1c-0.3-0.3-0.6-0.4-1-0.3l-4.7,0.5
		c-0.4,0-0.8,0.2-1,0.6c-0.3,0.3-0.4,0.7-0.4,1.1L61.4,73.9z"/>
	<path d="M69.6,54.3l9.3-1l0,21.9l-9.3,1L69.6,54.3z M70.4,62.5l5,2.9l0,5.3c0,0.1-0.1,0.3-0.1,0.4c-0.1,0.1-0.2,0.2-0.3,0.2
		l-1.4,0.1c-0.1,0-0.2,0-0.3-0.1c-0.1-0.1-0.2-0.2-0.2-0.4l0-3.8l-2.7,0.3l0,5.4c0,0.4,0.1,0.8,0.4,1.1c0.3,0.3,0.6,0.4,1,0.4
		l4.8-0.5c0.4,0,0.8-0.2,1-0.6c0.3-0.3,0.4-0.7,0.4-1.1l0-8.4l-5-2.8l0-2.2c0-0.1,0-0.3,0.1-0.4c0.1-0.1,0.2-0.2,0.3-0.2l1.4-0.1
		c0.1,0,0.2,0,0.3,0.1c0.1,0.1,0.2,0.2,0.2,0.4l0,1.1l2.7-0.3l0-2.7c0-0.4-0.1-0.8-0.4-1.1c-0.3-0.3-0.6-0.4-1-0.4l-4.7,0.5
		c-0.4,0-0.8,0.2-1.1,0.6c-0.3,0.3-0.4,0.7-0.4,1.1L70.4,62.5z"/>
	<path d="M71.5,54.1c-1.5-0.5-2.7-1-3.7-1.7c1.5,0.7,2.9,1.2,4,1.6L71.5,54.1z M68.3,54.5c-0.2-0.1-0.3-0.1-0.4-0.2l0.5,0.2
		L68.3,54.5z M72.7,54c-2-0.6-3.6-1.3-4.8-2.1c2.1,0.9,3.9,1.6,5.3,2L72.7,54z M70.4,54.2c-1.1-0.3-1.9-0.7-2.5-1.2
		c0.8,0.4,1.7,0.8,2.8,1.2L70.4,54.2z M69.4,54.4c-0.4-0.1-0.9-0.4-1.4-0.8c0.7,0.4,1.3,0.6,1.7,0.8L69.4,54.4z M74,53.9
		c-2.6-0.8-4.6-1.6-6-2.5c2.6,1.1,4.9,2,6.8,2.4L74,53.9z M75.4,53.7c-3.2-0.9-5.6-1.8-7.3-2.9c3.1,1.3,5.9,2.3,8.4,2.8L75.4,53.7z
		 M76.9,53.6c-3.7-0.9-6.6-2-8.9-3.3c3.7,1.6,7.1,2.7,10.3,3.1L76.9,53.6z M78.6,53.4c-4.4-0.8-7.9-2-10.5-3.7
		c4.2,1.9,8.3,3,12.5,3.4l0,21.9l-2,0.2L78.6,53.4z M81.4,64l0-11.5c-2.2-0.2-4.5-0.6-6.9-1.2c-2.3-0.6-4.4-1.4-6.3-2.3l25.5-2.7
		l-7.7,9.2l7.8,7.1L81.4,64z"/>
</g>
<g>
	<path d="M22.8,20.1l1.7,5.9L20,26.4l0,26.6l-6.8,0.7l0-26.6l-4.5,0.5l1.7-6.3L22.8,20.1z"/>
	<path d="M42.8,46c0,0.6-0.1,1.2-0.2,1.8c-0.2,0.6-0.4,1.1-0.8,1.5c-0.4,0.5-0.9,0.8-1.5,1.2c-0.6,0.3-1.4,0.5-2.3,0.6L30.3,52
		c-0.9,0.1-1.7,0-2.3-0.1c-0.6-0.2-1.1-0.5-1.5-0.9c-0.4-0.4-0.6-0.8-0.8-1.4c-0.2-0.5-0.2-1.1-0.2-1.8l0-23.8
		c0-1.3,0.4-2.4,1.1-3.2c0.7-0.8,1.9-1.3,3.4-1.5l8.3-0.9c1.6-0.2,2.7,0.1,3.4,0.8c0.7,0.7,1.1,1.7,1.1,3L42.8,46z M32.8,24.8
		c-0.4,0-0.6,0.3-0.6,0.7l0,19.9c0,0.2,0,0.4,0.1,0.5c0.1,0.1,0.3,0.1,0.5,0.1l2.5-0.3c0.3,0,0.5-0.1,0.5-0.2C36,45.4,36,45.2,36,45
		l0-19.9c0-0.4-0.2-0.6-0.6-0.6L32.8,24.8z"/>
	<path d="M57.7,16.5c1.3-0.1,2.3,0.1,3,0.8c0.7,0.7,1,1.6,1,2.8l0,15.6c0,0.6-0.1,1.2-0.2,1.8c-0.1,0.5-0.4,1-0.8,1.5
		c-0.4,0.4-0.9,0.8-1.5,1.1c-0.6,0.3-1.4,0.5-2.3,0.6l-5.7,0.6l0,8.7l-6.6,0.7l0-32.7L57.7,16.5z M51.2,22.8l0,12.8l3.3-0.3
		c0.3,0,0.5-0.1,0.5-0.2c0.1-0.1,0.1-0.3,0.1-0.5l0-11.5c0-0.4-0.2-0.6-0.6-0.6L51.2,22.8z"/>
	<path class="st2" d="M65.3,15.7l7.1-0.7l0,26.6l2.3-0.2l0,6.1l-11.3,1.2l0-6.1l2.2-0.2l0-20.5L62.8,22L65.3,15.7z"/>
	<path class="st2" d="M75.9,19.1c0-1.3,0.4-2.4,1.1-3.3c0.7-0.9,1.9-1.5,3.4-1.6l8.2-0.9c1.5-0.2,2.7,0.2,3.4,0.9
		c0.7,0.8,1.1,1.8,1.1,3.1l0,23.6c0,1.3-0.4,2.4-1.1,3.3c-0.7,0.9-1.9,1.5-3.4,1.6l-8.2,0.9c-1.5,0.2-2.7-0.2-3.4-0.9
		c-0.7-0.8-1.1-1.8-1.1-3.1L75.9,19.1z M83.2,19.5c-0.4,0-0.6,0.3-0.6,0.7l0,19.9c0,0.2,0,0.4,0.1,0.5c0.1,0.1,0.3,0.1,0.5,0.1
		l2.4-0.3c0.3,0,0.5-0.1,0.5-0.2c0.1-0.1,0.1-0.3,0.1-0.5l0-19.9c0-0.4-0.2-0.6-0.6-0.6L83.2,19.5z"/>
</g>
<g>
	<polyline class="st0" points="70.4,80.3 82.5,90.5 80.3,78.2 	"/>
	<path d="M70.4,80.3c0.6,0.3,1.2,0.6,1.8,0.9c0.6,0.3,1.2,0.6,1.8,1c1.2,0.7,2.3,1.4,3.4,2.2c2.2,1.5,4.2,3.1,6.2,4.9l-2.7,1.6
		c-0.3-2.1-0.5-4.1-0.7-6.3c-0.1-1.1-0.1-2.1-0.1-3.2c0-1.1,0.1-2.1,0.2-3.2c0.5,1,0.9,2,1.3,3c0.4,1,0.7,2,1,3c0.6,2,1.1,4,1.5,6.1
		l0.9,4.5l-3.6-2.9c-2.1-1.7-4-3.4-5.9-5.3c-0.9-0.9-1.8-1.9-2.7-2.9c-0.4-0.5-0.8-1-1.3-1.6C71.1,81.5,70.7,80.9,70.4,80.3z"/>
</g>
</svg>
