<?xml version="1.0" encoding="utf-8"?>
<!-- Generator: Adobe Illustrator 19.2.0, SVG Export Plug-In . SVG Version: 6.00 Build 0)  -->
<svg version="1.1" id="Calque_1" xmlns="http://www.w3.org/2000/svg" xmlns:xlink="http://www.w3.org/1999/xlink" x="0px" y="0px"
	 viewBox="0 0 888.9 645.1" style="enable-background:new 0 0 888.9 645.1;" xml:space="preserve">
<style type="text/css">
	.st0{fill:#36A9E1;}
	.st1{fill:#951417;}
	.st2{fill:#FFFFFF;}
	.st3{fill:#1D71B8;}
	.st4{clip-path:url(#XMLID_2_);}
	.st5{fill:none;}
	.st6{fill:#E94E1B;}
	.st7{clip-path:url(#XMLID_4_);fill:#951417;}
	.st8{stroke:#000000;stroke-miterlimit:10;}
	.st9{fill:#009FE3;}
	.st10{opacity:0.3;fill:#FFFFFF;}
</style>
<path class="st0" d="M852.7,587.3c0,17.4-182.8,31.5-408.3,31.5c-47.8,0-93.7-0.6-136.4-1.8c-4.3-0.1-8.5-0.2-12.7-0.4
	c-3.3-0.1-10.5-0.3-9.8-0.3c-6.1-0.2-13.4-0.5-9.7-0.3c-6.9-0.2-9.2-0.3-9.6-0.3c-1.8-0.1-3.4-0.1-9.4-0.4c3.3,0.1-2.4-0.1-9.3-0.4
	c2.4,0.1-5.9-0.3-9.1-0.4c-8.1-0.4-16-0.7-23.7-1.2c-107.8-5.7-178.6-15.2-178.6-26c0-17.4,182.8-31.5,408.3-31.5
	S852.7,570,852.7,587.3z"/>
<path class="st1" d="M393.6,466.1c0,0,24.9,21.3,35.1,24.5s30.4-3.6,46-33.1L393.6,466.1z"/>
<path class="st2" d="M515.1,368.8c0,0-1.1,2.5-4,2.7C511.1,371.4,516,373.4,515.1,368.8z"/>
<g>
	<ellipse class="st3" cx="437.9" cy="568.9" rx="78.6" ry="13.8"/>
	<g>
		<defs>
			<path id="XMLID_22_" d="M374.2,443.2c-27.7-8.6,4.9-39.9-0.3-45.5c-3.2-3.5-17,2.7-24.7,11.6c-14.2,16.5-23.1,36,0.5,62.6
				c11,12.3,26.2,42.9,45.6,63.3c1.7,1.8,3.3,3.5,5.1,5c12.5,10.5,22.1,11.1,22.1,11.1c21.4,5,46.3-1,55.7-11.1
				c13.1-14,17.5-46.3,28-61.2s33.3-46.2,16.5-75.1c-14.8-25.5-41.1-23.6-39.4-17.3s14.3,6.4,15.8,18.5
				c1.3,14.1-11.4,24.1-11.4,24.1S421.9,458,374.2,443.2z"/>
		</defs>
		<use xlink:href="#XMLID_22_"  style="overflow:visible;fill:#BE1622;"/>
		<clipPath id="XMLID_2_">
			<use xlink:href="#XMLID_22_"  style="overflow:visible;"/>
		</clipPath>
		<path class="st4" d="M365.1,432.2c0,0-5.8,23.4,23.4,29.6c23.1,4.9,62.7,9.1,102.5-13.8c0,0,14.8-9.2,7.5-34.7"/>
		
			<use xlink:href="#XMLID_22_"  style="overflow:visible;fill:none;stroke:#000000;stroke-width:3;stroke-linecap:round;stroke-linejoin:round;stroke-miterlimit:10;"/>
	</g>
	<g>
		<path class="st5" d="M329.2,427.4"/>
	</g>
	<g>
		<path class="st5" d="M323.5,440"/>
	</g>
	<g>
		<g>
			<path class="st2" d="M416.5,474.3l45.5-4.7c2.9-0.3,5.3,1.8,5.3,4.8l0.2,35.1c0,2.9-2.3,5.6-5.3,5.9l-45.5,4.7
				c-2.9,0.3-5.3-1.8-5.3-4.8l-0.2-35.1C411.2,477.2,413.6,474.6,416.5,474.3z"/>
			<path d="M416.2,521c-1.4,0-2.8-0.5-3.9-1.5c-1.2-1.1-1.9-2.6-1.9-4.3l-0.2-35.1c0-3.4,2.7-6.5,6.1-6.8l45.5-4.7
				c1.7-0.2,3.3,0.3,4.5,1.4c1.2,1.1,1.9,2.6,1.9,4.3l0.2,35.1c0,3.4-2.7,6.5-6.1,6.8l-45.5,4.7C416.7,521,416.4,521,416.2,521z
				 M462.6,470.6c-0.1,0-0.3,0-0.4,0l-45.5,4.7c-2.4,0.3-4.4,2.5-4.4,4.9l0.2,35.1c0,1.1,0.5,2.2,1.3,2.9c0.8,0.7,1.9,1.1,3,0.9
				l45.5-4.7c2.4-0.3,4.4-2.5,4.4-4.9l-0.2-35.1c0-1.2-0.5-2.2-1.3-2.9C464.5,470.9,463.6,470.6,462.6,470.6z"/>
		</g>
		<g>
			<path d="M424.1,508.2l-7,0.7l4.4-4.9l-4.4-4.3l14.4-1.5c-1,0.7-2.2,1.4-3.5,2.1c-1.3,0.6-2.6,1.1-3.9,1.5L424.1,508.2z
				 M425.7,501.9l0,12.4l-1.1,0.1l0-12.4c2.3-0.7,4.7-1.9,7.1-3.4C430.1,499.8,428.1,500.9,425.7,501.9z M426.6,501.8l-0.8,0.1
				c1.8-0.7,3.8-1.6,5.8-3C430.4,499.9,428.7,500.9,426.6,501.8z M427.5,501.7l-0.6,0.1c1.4-0.6,3-1.4,4.7-2.6
				C430.7,500,429.3,500.9,427.5,501.7z M428.3,501.6l-0.4,0c1.1-0.5,2.3-1.2,3.8-2.2C430.9,500.2,429.8,500.9,428.3,501.6z
				 M429,501.6l-0.3,0c0.8-0.4,1.8-1,3-1.8C431.1,500.4,430.2,501,429,501.6z M429.7,501.5l-0.2,0c0.7-0.4,1.4-0.8,2.3-1.4
				C431.2,500.6,430.5,501.1,429.7,501.5z M430.3,501.4l-0.1,0c0.6-0.3,1.1-0.7,1.6-1C431.4,500.8,430.9,501.1,430.3,501.4z
				 M430.9,501.4l-0.1,0c0.2-0.1,0.5-0.4,0.9-0.6C431.4,501,431.2,501.2,430.9,501.4z M431.5,501.3L431.5,501.3l0.2-0.2L431.5,501.3
				z"/>
			<path d="M425.5,501.9l5.3-0.5l0,12.4l-5.3,0.5L425.5,501.9z M426,512.5c0,0.2,0.1,0.4,0.2,0.6c0.2,0.2,0.4,0.2,0.6,0.2l2.7-0.3
				c0.2,0,0.4-0.1,0.6-0.3c0.2-0.2,0.2-0.4,0.2-0.7l0-3.4l-1.5,0.2l0,2.4c0,0.2-0.1,0.3-0.2,0.3l-0.8,0.1c-0.2,0-0.2-0.1-0.2-0.3
				l0-6.9c0-0.2,0.1-0.3,0.2-0.3l0.8-0.1c0.2,0,0.2,0.1,0.2,0.3l0,1.6l1.5-0.2l0-2.5c0-0.2-0.1-0.4-0.2-0.6
				c-0.2-0.2-0.4-0.2-0.6-0.2l-2.7,0.3c-0.2,0-0.4,0.1-0.6,0.3c-0.2,0.2-0.2,0.4-0.2,0.7L426,512.5z"/>
			<path d="M430.6,501.4l5.2-0.5l0,12.4l-5.2,0.5L430.6,501.4z M431.1,511.9c0,0.2,0.1,0.4,0.2,0.6c0.2,0.2,0.4,0.2,0.6,0.2l2.7-0.3
				c0.2,0,0.4-0.1,0.6-0.3c0.2-0.2,0.2-0.4,0.2-0.6l0-8.8c0-0.2-0.1-0.4-0.2-0.6c-0.2-0.2-0.3-0.2-0.6-0.2l-2.7,0.3
				c-0.2,0-0.4,0.1-0.6,0.3c-0.2,0.2-0.2,0.4-0.2,0.6L431.1,511.9z M433.9,503.8l0,6.9c0,0.1,0,0.2-0.1,0.2
				c-0.1,0.1-0.1,0.1-0.2,0.1l-0.8,0.1c-0.2,0-0.2-0.1-0.2-0.3l0-6.9c0-0.2,0.1-0.3,0.2-0.3l0.9-0.1
				C433.8,503.5,433.9,503.6,433.9,503.8z"/>
			<path d="M435.7,500.9l6.7-0.7l0,12.4l-6.7,0.7L435.7,500.9z M440.2,501.3l-1.1,5.1l-0.9-4.9l-2,0.2l0,10.6l1.4-0.2l0-6.1l1.5,6
				l1.4-6.3l0,6.2l1.5-0.2l0-10.6L440.2,501.3z"/>
			<path d="M442.3,500.2l2.4-0.3l0,12.4l-2.4,0.3L442.3,500.2z M444.3,511.4l0-10.6l-1.5,0.2l0,10.6L444.3,511.4z"/>
			<path d="M444.6,500l5.3-0.5l0,12.4l-5.3,0.5L444.6,500z M445,510.5c0,0.2,0.1,0.4,0.2,0.6c0.2,0.2,0.4,0.2,0.6,0.2l2.7-0.3
				c0.2,0,0.4-0.1,0.6-0.3c0.2-0.2,0.2-0.4,0.2-0.7l0-3.4l-1.5,0.2l0,2.4c0,0.2-0.1,0.3-0.2,0.3l-0.8,0.1c-0.2,0-0.2-0.1-0.2-0.3
				l0-6.9c0-0.2,0.1-0.3,0.2-0.3l0.8-0.1c0.2,0,0.2,0.1,0.2,0.3l0,1.6l1.5-0.2l0-2.5c0-0.2-0.1-0.4-0.2-0.6
				c-0.2-0.2-0.4-0.2-0.6-0.2l-2.7,0.3c-0.2,0-0.4,0.1-0.6,0.3c-0.2,0.2-0.2,0.4-0.2,0.7L445,510.5z"/>
			<path d="M449.7,499.4l5.3-0.5l0,12.4l-5.3,0.5L449.7,499.4z M450.1,504l2.8,1.7l0,3c0,0.1,0,0.2-0.1,0.2
				c-0.1,0.1-0.1,0.1-0.2,0.1l-0.8,0.1c-0.1,0-0.1,0-0.2-0.1c-0.1-0.1-0.1-0.1-0.1-0.2l0-2.1l-1.5,0.2l0,3.1c0,0.2,0.1,0.4,0.2,0.6
				c0.2,0.2,0.4,0.2,0.6,0.2l2.7-0.3c0.2,0,0.4-0.1,0.6-0.3c0.2-0.2,0.2-0.4,0.2-0.6l0-4.7l-2.8-1.6l0-1.3c0-0.1,0-0.2,0.1-0.2
				c0.1-0.1,0.1-0.1,0.2-0.1l0.8-0.1c0.1,0,0.1,0,0.2,0.1c0.1,0.1,0.1,0.1,0.1,0.2l0,0.6l1.5-0.2l0-1.5c0-0.2-0.1-0.4-0.2-0.6
				c-0.2-0.2-0.4-0.2-0.6-0.2l-2.7,0.3c-0.2,0-0.4,0.1-0.6,0.3c-0.2,0.2-0.2,0.4-0.2,0.6L450.1,504z"/>
			<path d="M450.8,499.3c-0.8-0.3-1.5-0.6-2.1-0.9c0.9,0.4,1.6,0.7,2.3,0.9L450.8,499.3z M448.9,499.5c-0.1,0-0.2-0.1-0.2-0.1
				L448.9,499.5L448.9,499.5z M451.4,499.2c-1.2-0.3-2.1-0.7-2.7-1.2c1.2,0.5,2.2,0.9,3,1.1L451.4,499.2z M450.1,499.4
				c-0.6-0.2-1.1-0.4-1.4-0.7c0.5,0.2,1,0.4,1.6,0.7L450.1,499.4z M449.5,499.4c-0.2-0.1-0.5-0.2-0.8-0.5c0.4,0.2,0.7,0.3,0.9,0.4
				L449.5,499.4z M452.1,499.2c-1.5-0.5-2.6-0.9-3.4-1.4c1.5,0.6,2.8,1.1,3.8,1.4L452.1,499.2z M452.9,499.1c-1.8-0.5-3.2-1-4.2-1.6
				c1.8,0.8,3.4,1.3,4.8,1.6L452.9,499.1z M453.8,499c-2.1-0.5-3.7-1.1-5-1.9c2.1,0.9,4,1.5,5.8,1.8L453.8,499z M454.8,498.9
				c-2.5-0.5-4.5-1.1-6-2.1c2.4,1.1,4.7,1.7,7.1,2l0,12.4l-1.1,0.1L454.8,498.9z M456.4,504.9l0-6.5c-1.3-0.1-2.6-0.3-3.9-0.7
				c-1.3-0.4-2.5-0.8-3.5-1.3l14.4-1.5l-4.4,5.2l4.4,4L456.4,504.9z"/>
		</g>
		<g>
			<path d="M423.2,480l0.9,3.3l-2.5,0.3l0,15l-3.9,0.4l0-15l-2.5,0.3l1-3.5L423.2,480z"/>
			<path d="M434.5,494.7c0,0.4,0,0.7-0.1,1c-0.1,0.3-0.2,0.6-0.4,0.9c-0.2,0.3-0.5,0.5-0.8,0.7c-0.3,0.2-0.8,0.3-1.3,0.4l-4.4,0.5
				c-0.5,0.1-1,0-1.3-0.1c-0.3-0.1-0.6-0.3-0.8-0.5c-0.2-0.2-0.4-0.5-0.4-0.8c-0.1-0.3-0.1-0.6-0.1-1l0-13.5c0-0.7,0.2-1.3,0.6-1.8
				c0.4-0.5,1.1-0.8,1.9-0.9l4.7-0.5c0.9-0.1,1.5,0.1,1.9,0.4c0.4,0.4,0.6,1,0.6,1.7L434.5,494.7z M428.8,482.7
				c-0.2,0-0.3,0.2-0.3,0.4l0,11.3c0,0.1,0,0.2,0.1,0.3c0,0.1,0.1,0.1,0.3,0.1l1.4-0.1c0.2,0,0.3-0.1,0.3-0.1c0-0.1,0.1-0.2,0.1-0.3
				l0-11.3c0-0.2-0.1-0.3-0.3-0.3L428.8,482.7z"/>
			<path d="M442.9,478c0.7-0.1,1.3,0.1,1.7,0.4c0.4,0.4,0.6,0.9,0.6,1.6l0,8.8c0,0.4,0,0.7-0.1,1c-0.1,0.3-0.2,0.6-0.4,0.8
				c-0.2,0.2-0.5,0.4-0.8,0.6c-0.3,0.2-0.8,0.3-1.3,0.3l-3.2,0.3l0,4.9l-3.8,0.4l0-18.5L442.9,478z M439.3,481.6l0,7.3l1.9-0.2
				c0.2,0,0.3-0.1,0.3-0.1c0-0.1,0.1-0.2,0.1-0.3l0-6.5c0-0.2-0.1-0.3-0.3-0.3L439.3,481.6z"/>
			<path class="st6" d="M447.2,477.5l4-0.4l0,15l1.3-0.1l0,3.4l-6.4,0.7l0-3.4l1.2-0.1l0-11.6l-1.6,0.2L447.2,477.5z"/>
			<path class="st6" d="M453.2,479.5c0-0.7,0.2-1.4,0.6-1.9c0.4-0.5,1.1-0.8,1.9-0.9l4.6-0.5c0.9-0.1,1.5,0.1,1.9,0.5
				c0.4,0.4,0.6,1,0.6,1.8l0,13.4c0,0.7-0.2,1.4-0.6,1.9c-0.4,0.5-1.1,0.8-1.9,0.9l-4.6,0.5c-0.9,0.1-1.5-0.1-1.9-0.5
				c-0.4-0.4-0.6-1-0.6-1.8L453.2,479.5z M457.4,479.7c-0.2,0-0.3,0.2-0.3,0.4l0,11.3c0,0.1,0,0.2,0.1,0.3c0,0.1,0.1,0.1,0.3,0.1
				l1.4-0.1c0.2,0,0.3-0.1,0.3-0.1c0-0.1,0.1-0.2,0.1-0.3l0-11.3c0-0.2-0.1-0.3-0.3-0.3L457.4,479.7z"/>
		</g>
	</g>
	<g>
		<polygon class="st2" points="450.1,514.1 456.9,519.9 455.7,512.9 		"/>
		<path d="M450.1,514.1c0.4,0.1,0.7,0.3,1,0.5c0.3,0.2,0.7,0.4,1,0.6c0.3,0.2,0.6,0.4,1,0.6c0.3,0.2,0.6,0.4,0.9,0.6
			c0.2,0.1,0.3,0.2,0.5,0.3c0.2,0.1,0.3,0.2,0.5,0.3c0.3,0.2,0.6,0.4,0.9,0.7c0.3,0.2,0.6,0.5,0.9,0.7c0.3,0.2,0.6,0.5,0.9,0.7
			l-1.5,0.9c-0.1-0.6-0.2-1.2-0.2-1.8c0-0.3-0.1-0.6-0.1-0.9c0-0.3,0-0.6-0.1-0.9c0-0.6,0-1.2,0-1.8c0-0.3,0-0.6,0-0.9
			c0-0.3,0-0.6,0.1-0.9c0.1,0.3,0.3,0.6,0.4,0.8c0.1,0.3,0.2,0.6,0.3,0.8c0.2,0.6,0.4,1.1,0.6,1.7c0.1,0.3,0.2,0.6,0.2,0.9
			c0.1,0.3,0.2,0.6,0.2,0.9c0.1,0.6,0.3,1.2,0.4,1.7l0.5,2.6l-2.1-1.7c-0.3-0.2-0.6-0.5-0.9-0.7c-0.3-0.2-0.6-0.5-0.8-0.7
			c-0.3-0.2-0.6-0.5-0.8-0.8c-0.1-0.1-0.3-0.3-0.4-0.4c-0.1-0.1-0.3-0.3-0.4-0.4c-0.3-0.3-0.5-0.5-0.8-0.8c-0.3-0.3-0.5-0.6-0.7-0.8
			c-0.2-0.3-0.5-0.6-0.7-0.9C450.5,514.8,450.3,514.5,450.1,514.1z"/>
	</g>
	<g>
		<defs>
			<path id="XMLID_24_" d="M389.2,527c0,0-31.1-10.6-38.5-9.4c-7.4,1.3-12.8,7.1-12.5,16.4c0.3,9.2,29.8,37.2,64.7,36.7
				s80-0.1,99.4-5s39.6-30.2,38-37.4c-1.6-7.1-8.9-17.3-29.3-8.9l-25.6,6.1"/>
		</defs>
		<use xlink:href="#XMLID_24_"  style="overflow:visible;fill:#BE1622;"/>
		<clipPath id="XMLID_3_">
			<use xlink:href="#XMLID_24_"  style="overflow:visible;"/>
		</clipPath>
		
			<use xlink:href="#XMLID_24_"  style="overflow:visible;fill:none;stroke:#000000;stroke-width:3;stroke-linecap:round;stroke-linejoin:round;stroke-miterlimit:10;"/>
	</g>
</g>
<g>
	<defs>
		<path id="XMLID_26_" d="M488.7,417.3c0,0,17.7-76.3-2.6-103.6c-20.2-27.4-76.8-43.1-91.4-39.5c-14.5,3.6-11.2,15.5-5,16.5
			c6.3,1,6.3,1,6.3,1s-38,5.7-43.5,24.9c-5.5,19.2-1.2,60.1,18,107c0,0,0.8,11.7,4.3,19.7c3.1,7.2,31.2,7.3,46.9,6.8
			c28.7-0.9,37.3-2,49.5-7.3C491.2,434,486.4,428.7,488.7,417.3z"/>
	</defs>
	<use xlink:href="#XMLID_26_"  style="overflow:visible;fill:#BE1622;"/>
	<clipPath id="XMLID_4_">
		<use xlink:href="#XMLID_26_"  style="overflow:visible;"/>
	</clipPath>
	<path class="st7" d="M384.7,281.8c0,0,2.1,3.6,7.9,4.6c5.9,1,22.3,4.7,28.4,7.4c0,0-36.4,12.9-36.1,64.1
		c0.4,73.7,33.8,91.8,32.2,91.8c-29.6,0.5-23.7-0.8-35.4-2.2c-12.4-1.5-10.1-23.4-13-28.5c-5.5-9.8-33.5-103.9-6.7-114.8
		c0,0,27.1-12.1,38.1-12.4C400.1,291.8,383.1,290.9,384.7,281.8z"/>
	<path class="st7" d="M439.4,449.3c0,0,26.9-19.7,12.3-19c-16.2,0.8-14.4-2.4-14.4-2.4s27.5,2.1,39.3-18.4s19.8-27,19.1-47.6
		c0,0-2.1,40.5-7.8,60.7c-5.6,20.2-18.8,21.6-24.6,23.1C457.6,447.2,443.7,449.1,439.4,449.3z"/>
	<use xlink:href="#XMLID_26_"  style="overflow:visible;fill:none;stroke:#000000;stroke-width:3;stroke-miterlimit:10;"/>
</g>
<path class="st1" d="M404.8,529.7c0,0-11.8,2.7-24.3-0.4s-22.3-5.9-22.3-5.9s24.9,5.9,33,5.3C391.2,528.6,403.9,529.8,404.8,529.7z"
	/>
<path class="st1" d="M474.7,528.5c0,0,12,2.7,24.4-0.4c12.5-3.1,22.3-5.9,22.3-5.9s-28.1,5.3-36.2,4.7
	C485.2,526.8,475.6,528.6,474.7,528.5z"/>
<g>
	<path d="M405,530.1c0,0-0.2,0.1-0.5,0.2c-0.4,0.1-0.9,0.2-1.5,0.4c-0.7,0.1-1.4,0.3-2.4,0.3c-0.9,0.1-1.9,0.1-3.1,0.2
		c-1.1,0-2.3,0-3.6-0.1c-0.6,0-1.3-0.1-2-0.1c-0.7-0.1-1.4-0.1-2.1-0.2c-1.4-0.1-2.8-0.3-4.3-0.5c-1.5-0.2-2.9-0.5-4.4-0.7
		c-1.5-0.3-2.9-0.6-4.3-0.9c-1.4-0.3-2.8-0.7-4.2-1c-1.4-0.3-2.7-0.7-3.9-1c-1.2-0.4-2.4-0.7-3.5-1c-1.1-0.3-2-0.6-2.9-0.9
		c-0.9-0.3-1.6-0.5-2.2-0.7c-1.2-0.4-1.9-0.6-1.9-0.6s0.7,0.2,2,0.6c0.6,0.2,1.4,0.4,2.2,0.7c0.9,0.2,1.8,0.6,2.9,0.8
		c1.1,0.3,2.2,0.6,3.5,0.9c1.2,0.3,2.5,0.6,3.9,0.9c1.4,0.3,2.8,0.7,4.2,0.9c1.4,0.3,2.9,0.6,4.3,0.8c1.5,0.2,2.9,0.5,4.4,0.6
		c1.4,0.2,2.9,0.4,4.3,0.4c0.7,0.1,1.4,0.1,2,0.2c0.7,0,1.3,0,2,0.1c1.3,0.1,2.5,0,3.6,0c1.1-0.1,2.1-0.1,3-0.2
		c0.9-0.1,1.7-0.2,2.3-0.4c0.6-0.1,1.1-0.3,1.4-0.4c0.3-0.1,0.5-0.2,0.5-0.2L405,530.1z"/>
</g>
<g>
	<path d="M475,528c0,0,0.2,0.1,0.5,0.2c0.3,0.1,0.8,0.2,1.4,0.4c0.6,0.1,1.4,0.3,2.3,0.4c0.9,0.1,1.9,0.2,3,0.2c1.1,0,2.3,0.1,3.6,0
		c0.6,0,1.3,0,2-0.1c0.7,0,1.3-0.1,2-0.2c1.4-0.1,2.8-0.3,4.3-0.4c1.5-0.2,2.9-0.4,4.4-0.6c1.5-0.2,2.9-0.5,4.3-0.8
		c1.4-0.3,2.8-0.6,4.2-0.9c1.4-0.3,2.7-0.6,3.9-0.9c1.2-0.3,2.4-0.6,3.5-0.9c1.1-0.3,2-0.6,2.9-0.8c0.9-0.3,1.6-0.5,2.2-0.7
		c1.2-0.4,2-0.6,2-0.6s-0.7,0.2-1.9,0.6c-0.6,0.2-1.4,0.4-2.2,0.7c-0.9,0.3-1.8,0.6-2.9,0.9c-1.1,0.3-2.2,0.6-3.5,1
		c-1.2,0.4-2.5,0.7-3.9,1c-1.4,0.3-2.7,0.7-4.2,1c-1.4,0.3-2.9,0.7-4.3,0.9c-1.5,0.2-2.9,0.6-4.4,0.7c-1.5,0.2-2.9,0.4-4.3,0.5
		c-0.7,0.1-1.4,0.1-2.1,0.2c-0.7,0-1.3,0.1-2,0.1c-1.3,0.1-2.5,0.1-3.6,0.1c-1.1,0-2.2-0.1-3.1-0.2c-0.9-0.1-1.7-0.2-2.4-0.3
		c-0.7-0.1-1.2-0.3-1.5-0.4c-0.4-0.1-0.5-0.2-0.5-0.2L475,528z"/>
</g>
<path class="st8" d="M520.5,456.2c0,0-24.9,19.9-31.4,23.3c0,0-9.5,41.4-13.6,48.4c0,0,5.2,2,13.4,0.9c0,0,11.4-41.5,17.3-49.9
	S520.5,456.2,520.5,456.2z"/>
<path class="st8" d="M345,464.3c0,0,29.5,17.1,37.5,19.4c0,0,16.4,39.3,21.5,45.6c0,0-5.4,2.4-14.9,0.6c0,0-23.2-35.8-29.7-44.2
	C353.1,477.6,345,464.3,345,464.3z"/>
<path class="st1" d="M536.1,524.9c0,0,2.2,1.8,2,4.6c0,0-11.6,25.8-37.7,33.7C500.4,563.2,521.1,555.1,536.1,524.9z"/>
<path class="st1" d="M343.4,532.3c0,0-1.9,2.2-1.2,4.9c0,0,15.5,23.7,42.5,27.3C384.7,564.5,363,559.8,343.4,532.3z"/>
<g>
	<g>
		<defs>
			<path id="XMLID_25_" d="M515.5,363.3c0,0,30.4-28.1,68.6-31.3s72.9,7.2,93.5,22.7c20.7,15.5,37.3,37.6,40.7,46.2
				s4,26.4,11.2,36.2c7.2,9.8,9.5,12.3,9.5,12.3s3.2,2.3,0,2.9s-3.7,1.7-6.3,4.3c-2.6,2.6-0.9,13.8-0.9,13.8s0.5,13.8,8.6,24.1
				c8.1,10.3,7.8,14.1,7.8,14.1s1.4,3.2-3.7,2.6c-5.2-0.6-2,8-4.3,10.3s-2.9,12.3-2.9,12.3s3.2,2.3,4.3,6.6c1.1,4.3,2.3,3.2,4.3,7.7
				c2,4.6,5.7,6.3,5.2,1.7c-0.6-4.6,2.6-5.7,2.3-3.2c-0.3,2.6-3.1,4,0,5.9c3.1,1.9,3.1,1.9,3.1,1.9s1.7,3.7,2.9,1.7
				c1.1-2,0.6-2.6,2.6-3.4c2-0.9,0.6-2.3,2-2.9c1.4-0.6,2.9,0,2.9,5.7s2.6,5.7,3.4,3.7c0.9-2,4.3-5.2,4.3-2c0,3.2-2,6.6,2.9,6.6
				s4.6,0.6,4.6,1.7s-90.4,0-90.4,0s-1.7-2,2-2c0,0,5.7,0.6,4.9-2.6s0-4,0.3-5.7c0.3-1.7,2.6-2.3,2.6-4.3s-0.9-4.9,0.6-5.5
				c1.4-0.6,2.9-2.9,3.4-5.2c0.6-2.3,3.4-2,3.4,1.7s4.6,4.3,5.5,5.7c0.9,1.4,3.4,3.4,3.7,1.4c0.3-2,2.6-14.9,0.6-16.4
				s-2.6-2.9-2.6-7.5c0-4.6,2-3.2,2.3-6c0.3-2.9,0-7.7,1.4-8.6c1.4-0.9,3.4,2.3,3.2-10.6c-0.3-12.9-4.9-7.2-4.9-9.8s-2-1.1-2.9-4.3
				c-0.9-3.2-4-3.7-3.7-8.3c0.3-4.6,2.3-0.3,3.4-7.2s3.4,2,3.4-10c0-12.1-2.9-3.2-3.4-11.8c-0.6-8.6-3.2-7.4-3.2-11.7
				c0-4.3,2-12.3-0.9-12.9s-1.1-2.6-3.4-3.2s-2.3-4.9-2.3-9.5c0-4.6-2.9-2.9-3.2-4.6s2.3-6.6-3.2-6.6c-5.5,0-3.7,2.9-6,3.7
				c-2.3,0.9-4,2.9-4.6-4.6c-0.6-7.5,1.4-10.9-1.4-11.8c-2.9-0.9-2.9-2.3-2.9-5.2s-4-11.5-19.2-19.2c-15.2-7.7-21.5-8.6-29.8-12.3
				c-8.3-3.7-22.4-10.9-43.3-9.5c-20.9,1.4-65.4,23.2-68,23.2C521,364.8,510.4,369.6,515.5,363.3z"/>
		</defs>
		<use xlink:href="#XMLID_25_"  style="overflow:visible;fill:#009FE3;"/>
		<clipPath id="XMLID_5_">
			<use xlink:href="#XMLID_25_"  style="overflow:visible;"/>
		</clipPath>
	</g>
	<circle class="st9" cx="675.2" cy="551.3" r="1.5"/>
	<circle class="st9" cx="690.9" cy="539.2" r="3.7"/>
	<circle class="st9" cx="700" cy="533.8" r="3"/>
	<circle class="st9" cx="696" cy="549.8" r="1.5"/>
	<circle class="st9" cx="766.6" cy="539.2" r="3.7"/>
	<path class="st3" d="M774.1,567.3c1.4-1.3-0.3-1.4-2.3-3.4c-2-2-3.2,3.2-6.3,0c-3.2-3.2-6.4-2-2.5-6s0.9-7.1-0.9-5.2
		c-1.9,1.9,1.7,4.9-2,5.5c-3.7,0.6-4.3,1.1-5.7-0.9c-1.4-2-1.2-3.6-2.3-4.4c-1.1-0.8-1.1,1.6-3.4,2.4s-2-1.4-3.2-0.3
		s-1.7,4.3-3.2,4.7c-1.4,0.4-2.3,5.3-5.2,0c-2.9-5.3-2.9-9.3-4-6.9c-1.1,2.4-1.4,1.6-3.2,3.6c-1.7,2-1.7,1.1,0,3.3
		c1.7,2.2,9.2,7.3,2.6,5s-9.9-4.6-13.2-7.8c-3.2-3.1-1.8-3.7-5.5-7.1s-7.1-5.7-7.4-5.2s-0.3,2.2-1.1,6.7c-0.9,4.5-0.3,7.1,1.7,7.1
		c2,0,9.2,3.2,4.9,3.7c-4.3,0.6-5.9,0.9-7.8-1.4s-5.1-5.5-5.1-5.5s-2.8,4.9,1.1,5.2c3.9,0.3,3.2,2,1.7,2.3c-1.4,0.3-8.3-3.2-8,0.9
		c0.3,4,24.4,10,24.4,10h47.3L774.1,567.3z"/>
	<path class="st2" d="M745.4,545.2c-2.5,2.2-3,8.1-5.3,6.9s-12.2-13.6-14.1-13.8c-1.9-0.2-1.5,15.4-3.7,14.5
		c-2.2-0.9-12.3-14.6-15.1-16.1s-3.4,0-1.7,3.6c1.7,3.6,14,17.4,16.1,16.9c4.8-1,2.4-16.2,6.2-13.6c3.9,2.6,10.5,15.4,12.5,13.6
		C742.3,555.6,748.7,542.3,745.4,545.2z"/>
	<path class="st10" d="M742.1,544.5c0,0-7.5-1.7-8.8-6.6c-1.3-5-4.7-9.1-4.7-9.1s-3.4-1.1,0-4.1c3.4-3,5.8-0.9,7.1-8
		c1.3-7.1,2.8-8.6,1.3-12.5c-1.5-3.9-1.7-3.2-4.9-5.4c-3.3-2.2-3.9-4.5-3.9-4.5s3.7-11.3,0.7-17.3c-3-6-4.1-9-4.1-9s0.4-1.9,0-7.3
		c-0.4-5.4,0.4-6.2,0-14.2c-0.4-8-0.9-5.8-1.4-8.4c-0.6-2.6,0.8-3-2.3-7.1c-3-4.1-3.4-1.9-3-8c0.4-6,0.2-9.9-5.4-16.8
		c-5.6-6.9-8.4-13.1-8.4-13.1s2.8,0.2-3-5.6c-5.8-5.8-5.6-7.3-7.3-9.7c-1.7-2.4,1.3,3.6-3.7-2.4c-4.9-6-15-14.6-21.1-17
		c-6-2.4-4.3-2.6-9.1-4.8c-4.7-2.1-1.3,1.3-8.8-3.9c-7.5-5.2-4.7-5.8-11.6-6.5s-5.4-1.7-11.4-2.1c-6-0.4-15.5-2.6-18.1-3.2
		c-2.6-0.7-2.6-0.4-6.2-1.1c-3.6-0.7-3-1.3-6-2c-3-0.6-0.7-3.6-9.9-1.8c-9.2,1.8-9.2,2.3-14.4,3.8c-5.2,1.5-4.3-0.7-9.3,3
		c-5,3.6-4.3,4.1-10.7,5.2c-6.5,1.1-5,0.4-10.3,2.8c-5.4,2.4-8,5-10.8,6c-2.8,1.1-5,1.4-8,2.2c0,0,18.3-10.8,22.9-12.5
		c4.6-1.7,21.2-9.9,32.7-11.1c11.5-1.1,23-0.4,39.9,2.7s33.7,10.9,37.9,10.3s7.5,4,10.6,5.2c3.2,1.1,19.3,16.2,25.2,20.1
		s16.1,16.6,18.1,22.1s6,10,6.3,12.9c0.3,2.9,0,6.3,3.4,16.1c3.4,9.8,8.6,16.9,7.5,20.4s6.5,2.5,5.1,6.3c-1.4,3.8-5.1,7.2-4.6,15.5
		c0.6,8.3,1.4,19.9,6.6,28.5c5.2,8.6,9.2,10.9,5.9,14.3c-3.3,3.4-0.7,8.9-2.7,11.5c-2,2.6-6,9.2-4,12.2c2,3,0.6,7,2.3,8.5
		C739.4,540.7,743.4,542.9,742.1,544.5z"/>
</g>
<g>
	<g>
		<defs>
			<path id="XMLID_27_" d="M336.8,363.3c0,0-30.4-28.1-68.6-31.3s-72.9,7.2-93.5,22.7s-37.3,37.6-40.7,46.2
				c-3.4,8.6-4,26.4-11.2,36.2c-7.2,9.8-9.5,12.3-9.5,12.3s-3.2,2.3,0,2.9c3.2,0.6,3.7,1.7,6.3,4.3c2.6,2.6,0.9,13.8,0.9,13.8
				s-0.5,13.8-8.6,24.1s-7.8,14.1-7.8,14.1s-1.4,3.2,3.7,2.6c5.2-0.6,2,8,4.3,10.3c2.3,2.3,2.9,12.3,2.9,12.3s-3.2,2.3-4.3,6.6
				c-1.1,4.3-2.3,3.2-4.3,7.7c-2,4.6-5.7,6.3-5.2,1.7s-2.6-5.7-2.3-3.2c0.3,2.6,3.1,4,0,5.9c-3.1,1.9-3.1,1.9-3.1,1.9
				s-1.7,3.7-2.9,1.7c-1.1-2-0.6-2.6-2.6-3.4c-2-0.9-0.6-2.3-2-2.9c-1.4-0.6-2.9,0-2.9,5.7s-2.6,5.7-3.4,3.7c-0.9-2-4.3-5.2-4.3-2
				c0,3.2,2,6.6-2.9,6.6c-4.9,0-4.6,0.6-4.6,1.7s90.4,0,90.4,0s1.7-2-2-2c0,0-5.7,0.6-4.9-2.6s0-4-0.3-5.7c-0.3-1.7-2.6-2.3-2.6-4.3
				s0.9-4.9-0.6-5.5c-1.4-0.6-2.9-2.9-3.4-5.2s-3.4-2-3.4,1.7s-4.6,4.3-5.5,5.7c-0.9,1.4-3.4,3.4-3.7,1.4c-0.3-2-2.6-14.9-0.6-16.4
				s2.6-2.9,2.6-7.5c0-4.6-2-3.2-2.3-6c-0.3-2.9,0-7.7-1.4-8.6c-1.4-0.9-3.4,2.3-3.2-10.6c0.3-12.9,4.9-7.2,4.9-9.8s2-1.1,2.9-4.3
				c0.9-3.2,4-3.7,3.7-8.3s-2.3-0.3-3.4-7.2c-1.1-6.9-3.4,2-3.4-10c0-12.1,2.9-3.2,3.4-11.8c0.6-8.6,3.2-7.4,3.2-11.7
				c0-4.3-2-12.3,0.9-12.9s1.1-2.6,3.4-3.2s2.3-4.9,2.3-9.5c0-4.6,2.9-2.9,3.2-4.6s-2.3-6.6,3.2-6.6c5.5,0,3.7,2.9,6,3.7
				c2.3,0.9,4,2.9,4.6-4.6s-1.4-10.9,1.4-11.8c2.9-0.9,2.9-2.3,2.9-5.2s4-11.5,19.2-19.2c15.2-7.7,21.5-8.6,29.8-12.3
				c8.3-3.7,22.4-10.9,43.3-9.5c20.9,1.4,65.4,23.2,68,23.2C331.4,364.8,342,369.6,336.8,363.3z"/>
		</defs>
		<use xlink:href="#XMLID_27_"  style="overflow:visible;fill:#009FE3;"/>
		<clipPath id="XMLID_6_">
			<use xlink:href="#XMLID_27_"  style="overflow:visible;"/>
		</clipPath>
	</g>
	<circle class="st9" cx="177.2" cy="551.3" r="1.5"/>
	<circle class="st9" cx="161.5" cy="539.2" r="3.7"/>
	<circle class="st9" cx="152.3" cy="533.8" r="3"/>
	<circle class="st9" cx="156.4" cy="549.8" r="1.5"/>
	<circle class="st9" cx="85.8" cy="539.2" r="3.7"/>
	<path class="st3" d="M78.3,567.3c-1.4-1.3,0.3-1.4,2.3-3.4c2-2,3.2,3.2,6.3,0c3.2-3.2,6.4-2,2.5-6c-3.9-4.1-0.9-7.1,0.9-5.2
		c1.9,1.9-1.7,4.9,2,5.5c3.7,0.6,4.3,1.1,5.7-0.9c1.4-2,1.2-3.6,2.3-4.4c1.1-0.8,1.1,1.6,3.4,2.4c2.3,0.9,2-1.4,3.2-0.3
		s1.7,4.3,3.2,4.7s2.3,5.3,5.2,0s2.9-9.3,4-6.9c1.1,2.4,1.4,1.6,3.2,3.6c1.7,2,1.7,1.1,0,3.3c-1.7,2.2-9.2,7.3-2.6,5
		c6.6-2.3,9.9-4.6,13.2-7.8c3.2-3.1,1.8-3.7,5.5-7.1s7.1-5.7,7.4-5.2s0.3,2.2,1.1,6.7c0.9,4.5,0.3,7.1-1.7,7.1s-9.2,3.2-4.9,3.7
		c4.3,0.6,5.9,0.9,7.8-1.4c1.9-2.3,5.1-5.5,5.1-5.5s2.8,4.9-1.1,5.2c-3.9,0.3-3.2,2-1.7,2.3c1.4,0.3,8.3-3.2,8,0.9
		c-0.3,4-24.4,10-24.4,10H86.9L78.3,567.3z"/>
	<path class="st2" d="M107,545.2c2.5,2.2,3,8.1,5.3,6.9c2.4-1.1,12.2-13.6,14.1-13.8c1.9-0.2,1.5,15.4,3.7,14.5
		c2.2-0.9,12.3-14.6,15.1-16.1s3.4,0,1.7,3.6c-1.7,3.6-14,17.4-16.1,16.9c-4.8-1-2.4-16.2-6.2-13.6c-3.9,2.6-10.5,15.4-12.5,13.6
		C110.1,555.6,103.7,542.3,107,545.2z"/>
	<path class="st10" d="M110.3,544.5c0,0,7.5-1.7,8.8-6.6c1.3-5,4.7-9.1,4.7-9.1s3.4-1.1,0-4.1c-3.4-3-5.8-0.9-7.1-8
		c-1.3-7.1-2.8-8.6-1.3-12.5c1.5-3.9,1.7-3.2,4.9-5.4c3.3-2.2,3.9-4.5,3.9-4.5s-3.7-11.3-0.7-17.3c3-6,4.1-9,4.1-9s-0.4-1.9,0-7.3
		c0.4-5.4-0.4-6.2,0-14.2c0.4-8,0.9-5.8,1.4-8.4c0.6-2.6-0.8-3,2.3-7.1c3-4.1,3.4-1.9,3-8c-0.4-6-0.2-9.9,5.4-16.8
		c5.6-6.9,8.4-13.1,8.4-13.1s-2.8,0.2,3-5.6c5.8-5.8,5.6-7.3,7.3-9.7s-1.3,3.6,3.7-2.4c4.9-6,15-14.6,21.1-17c6-2.4,4.3-2.6,9.1-4.8
		c4.7-2.1,1.3,1.3,8.8-3.9c7.5-5.2,4.7-5.8,11.6-6.5c6.9-0.7,5.4-1.7,11.4-2.1c6-0.4,15.5-2.6,18.1-3.2s2.6-0.4,6.2-1.1
		c3.6-0.7,3-1.3,6-2c3-0.6,0.7-3.6,9.9-1.8c9.2,1.8,9.2,2.3,14.4,3.8c5.2,1.5,4.3-0.7,9.3,3c5,3.6,4.3,4.1,10.7,5.2
		c6.5,1.1,5,0.4,10.3,2.8c5.4,2.4,8,5,10.8,6c2.8,1.1,5,1.4,8,2.2c0,0-18.3-10.8-22.9-12.5s-21.2-9.9-32.7-11.1
		c-11.5-1.1-23-0.4-39.9,2.7s-33.7,10.9-37.9,10.3c-4.1-0.5-7.5,4-10.6,5.2s-19.3,16.2-25.2,20.1c-6,3.9-16.1,16.6-18.1,22.1
		s-6,10-6.3,12.9s0,6.3-3.4,16.1c-3.4,9.8-8.6,16.9-7.5,20.4s-6.5,2.5-5.1,6.3c1.4,3.8,5.1,7.2,4.6,15.5s-1.4,19.9-6.6,28.5
		c-5.2,8.6-9.2,10.9-5.9,14.3c3.3,3.4,0.7,8.9,2.7,11.5c2,2.6,6,9.2,4,12.2c-2,3-0.6,7-2.3,8.5C113,540.7,109,542.9,110.3,544.5z"/>
	<circle class="st2" cx="153.2" cy="532.9" r="1"/>
	<ellipse transform="matrix(0.9873 -0.1588 0.1588 0.9873 -84.4167 20.1601)" class="st2" cx="84" cy="538.4" rx="1" ry="1"/>
</g>
<path class="st3" d="M144.1,568.9c0,0,5.5,0.6,7,1.7c1.5,1.2-12.2,5.6-19.2,6.2c-7,0.6-10.2,2.6-15.7,2.6c-5.5,0-5.5,0-14-1.2
	s-16.9-4.9-21.9-5.2c-4.9-0.3-1.8-1.9,0-2.5c1.8-0.6,5,2.1,9.1,1.2"/>
<path class="st0" d="M125,604.4c-1-2.2-4-2.2-7.5,1.3c-4.4-3.5-9.3-3.5-14.3-1.7c-3-1.9-6-1.9-6.2-1.7c0.2-0.2,0.2-3.2-1.9-5.6
	c2.1-5.6,2.1-10.5-3.4-14.3c5.5-4.1,5.5-7.1,1-8.8c4.5,1.6,7.5,1.6,4.2-2.8c11.2,4.4,16.2,4.4,23.7-5.1c0.5,9.5,3.4,9.5,10.8,4.4
	c-7.4,5.1-7.4,8.1,2.3,12.6c-9.7,3.4-9.7,8.4-6.2,17.4C124,599.2,124,602.2,125,604.4z"/>
<path class="st3" d="M766.5,570.3c0,0,5.5,0.6,7,1.7c1.5,1.2-12.2,5.6-19.2,6.2s-10.2,2.6-15.7,2.6c-5.5,0-5.5,0-14-1.2
	c-8.5-1.2-16.9-4.9-21.9-5.2c-4.9-0.3-1.8-1.9,0-2.5c1.8-0.6,5,2.1,9.1,1.2"/>
<path class="st0" d="M747.4,605.7c-1-2.2-4-2.2-7.5,1.3c-4.4-3.5-9.3-3.5-14.3-1.7c-3-1.9-6-1.9-6.2-1.7c0.2-0.2,0.2-3.2-1.9-5.6
	c2.1-5.6,2.1-10.5-3.4-14.3c5.5-4.1,5.5-7.1,1-8.8c4.5,1.6,7.5,1.6,4.2-2.8c11.2,4.4,16.2,4.4,23.7-5.1c0.5,9.5,3.4,9.5,10.8,4.4
	c-7.4,5.1-7.4,8.1,2.3,12.6c-9.7,3.4-9.7,8.4-6.2,17.4C746.4,600.6,746.4,603.5,747.4,605.7z"/>
<g>
	<path class="st0" d="M192.5,591.7c0-6.5,5.3-11.7,11.7-11.7c6.5,0,11.7,5.3,11.7,11.7c0,0-2.9,2.1-8.6,2.4"/>
	<path class="st2" d="M192.5,591.7c-0.2-1.5,0-3.1,0.5-4.6c0.5-1.5,1.4-2.9,2.4-4.1c1.1-1.2,2.5-2.2,4-2.9c1.5-0.7,3.2-1,4.8-1.1
		l0.6,0l0.6,0c0.4,0,0.8,0.1,1.2,0.2c0.8,0.2,1.6,0.4,2.4,0.7c1.5,0.6,2.9,1.6,4.1,2.8c1.2,1.2,2.1,2.6,2.7,4.2
		c0.6,1.5,0.8,3.2,0.8,4.8l0,0.4l-0.3,0.2c-0.2,0.1-0.4,0.2-0.6,0.3c-0.2,0.1-0.4,0.2-0.5,0.3c-0.4,0.2-0.7,0.3-1.1,0.4
		c-0.7,0.3-1.5,0.4-2.2,0.6c-0.8,0.1-1.5,0.2-2.3,0.3c-0.8,0-1.5,0-2.3,0c0.7-0.1,1.5-0.3,2.2-0.4c0.7-0.2,1.4-0.4,2.1-0.6
		c0.7-0.2,1.4-0.5,2-0.8c0.3-0.2,0.6-0.3,1-0.5c0.2-0.1,0.3-0.2,0.5-0.3c0.1-0.1,0.3-0.2,0.4-0.3l-0.3,0.5c-0.1-1.5-0.4-2.9-1-4.2
		c-0.6-1.3-1.4-2.5-2.4-3.5c-1-1-2.2-1.8-3.5-2.3c-0.6-0.3-1.3-0.5-2-0.6c-0.3-0.1-0.7-0.1-1-0.2l-0.5,0l-0.6,0
		c-1.4,0-2.8,0.2-4.2,0.7c-1.3,0.5-2.6,1.3-3.7,2.2c-1.1,1-2,2.2-2.7,3.5C193.1,588.7,192.7,590.1,192.5,591.7z"/>
</g>
<ellipse transform="matrix(0.7618 -0.6478 0.6478 0.7618 -329.7481 274.8904)" class="st2" cx="208.9" cy="585.9" rx="1.1" ry="3.2"/>
<g>
	<path class="st0" d="M280.4,559.5c0-2.7,2.2-5,5-5c2.7,0,5,2.2,5,5c0,0-1.2,0.9-3.6,1"/>
	<path class="st2" d="M280.4,559.5c0-0.3,0-0.6,0-1c0-0.3,0.1-0.7,0.2-1c0.1-0.3,0.2-0.6,0.4-0.9c0.2-0.3,0.4-0.6,0.6-0.8
		c0.2-0.3,0.5-0.5,0.8-0.7c0.3-0.2,0.6-0.4,0.9-0.5c0.3-0.1,0.7-0.3,1-0.3c0.3-0.1,0.7-0.1,1.1-0.1l0.5,0l0.5,0.1
		c0.4,0.1,0.7,0.2,1,0.3c0.3,0.1,0.6,0.3,0.9,0.5c0.3,0.2,0.6,0.4,0.8,0.7c0.2,0.3,0.5,0.5,0.7,0.8c0.2,0.3,0.3,0.6,0.5,0.9
		c0.1,0.3,0.2,0.7,0.3,1c0,0.3,0.1,0.7,0.1,1l0,0.2l-0.1,0.1c-0.2,0.1-0.3,0.2-0.5,0.2c-0.2,0.1-0.3,0.1-0.5,0.2
		c-0.3,0.1-0.6,0.2-1,0.2c-0.6,0.1-1.3,0.1-1.9,0.1c0.6-0.1,1.2-0.2,1.8-0.5c0.3-0.1,0.6-0.2,0.8-0.4c0.1-0.1,0.3-0.1,0.4-0.2
		c0.1-0.1,0.3-0.2,0.3-0.2l-0.1,0.3c0-0.3-0.1-0.6-0.1-0.9c-0.1-0.3-0.2-0.6-0.3-0.8c-0.1-0.3-0.3-0.5-0.4-0.8
		c-0.2-0.2-0.4-0.5-0.6-0.7c-0.2-0.2-0.4-0.4-0.7-0.5c-0.2-0.2-0.5-0.3-0.8-0.4c-0.3-0.1-0.5-0.2-0.8-0.3l-0.4-0.1l-0.5,0
		c-0.3,0-0.6,0-0.9,0.1c-0.3,0.1-0.6,0.1-0.9,0.2c-0.3,0.1-0.5,0.2-0.8,0.4c-0.3,0.2-0.5,0.3-0.7,0.5c-0.2,0.2-0.4,0.4-0.6,0.7
		c-0.2,0.2-0.4,0.5-0.5,0.8c-0.1,0.3-0.3,0.6-0.4,0.9C280.5,558.9,280.4,559.2,280.4,559.5z"/>
</g>
<ellipse transform="matrix(0.7618 -0.6478 0.6478 0.7618 -292.4179 318.7939)" class="st2" cx="287.3" cy="557" rx="0.5" ry="1.3"/>
<g>
	<path class="st0" d="M301,580c0-3.2,2.6-5.8,5.8-5.8c3.2,0,5.8,2.6,5.8,5.8c0,0-1.4,1.1-4.3,1.2"/>
	<path class="st3" d="M301,580c0-0.4,0-0.8,0-1.2c0.1-0.4,0.1-0.8,0.3-1.2c0.1-0.4,0.3-0.7,0.5-1.1c0.2-0.3,0.4-0.7,0.7-1
		c0.3-0.3,0.6-0.6,0.9-0.8c0.3-0.2,0.7-0.4,1.1-0.6c0.4-0.2,0.8-0.3,1.2-0.4c0.4-0.1,0.8-0.1,1.2-0.1l0.6,0l0.6,0.1
		c0.4,0.1,0.8,0.2,1.2,0.4c0.4,0.2,0.7,0.4,1.1,0.6c0.3,0.2,0.7,0.5,1,0.8c0.3,0.3,0.5,0.6,0.8,1c0.2,0.4,0.4,0.7,0.6,1.1
		c0.1,0.4,0.2,0.8,0.3,1.2c0.1,0.4,0.1,0.8,0.1,1.2l0,0.2l-0.1,0.1c-0.2,0.1-0.4,0.2-0.5,0.3c-0.2,0.1-0.4,0.1-0.5,0.2
		c-0.4,0.1-0.7,0.2-1.1,0.3c-0.8,0.1-1.5,0.2-2.3,0.1c0.7-0.1,1.5-0.3,2.2-0.5c0.3-0.1,0.7-0.3,1-0.4c0.2-0.1,0.3-0.2,0.5-0.2
		c0.1-0.1,0.3-0.2,0.4-0.3l-0.1,0.3c0-0.4-0.1-0.7-0.2-1.1c-0.1-0.3-0.2-0.7-0.3-1c-0.1-0.3-0.3-0.6-0.5-0.9
		c-0.2-0.3-0.4-0.5-0.7-0.8c-0.3-0.2-0.5-0.5-0.8-0.7c-0.3-0.2-0.6-0.4-0.9-0.5c-0.3-0.1-0.7-0.2-1-0.3l-0.5-0.1l-0.5,0
		c-0.4,0-0.7,0-1.1,0.1c-0.3,0.1-0.7,0.2-1,0.3c-0.3,0.1-0.6,0.3-1,0.5c-0.3,0.2-0.6,0.4-0.9,0.6c-0.3,0.2-0.5,0.5-0.7,0.8
		c-0.2,0.3-0.4,0.6-0.6,0.9c-0.2,0.3-0.3,0.7-0.4,1C301.1,579.3,301,579.7,301,580z"/>
</g>
<ellipse transform="matrix(0.7618 -0.6478 0.6478 0.7618 -300.241 337.7178)" class="st2" cx="309.1" cy="577.1" rx="0.5" ry="1.6"/>
<g>
	<path class="st0" d="M606,577.4c0-3.2,2.6-5.8,5.8-5.8c3.2,0,5.8,2.6,5.8,5.8c0,0-1.4,1.1-4.3,1.2"/>
	<path class="st3" d="M606,577.4c0-0.4,0-0.8,0-1.2c0.1-0.4,0.1-0.8,0.3-1.2c0.1-0.4,0.3-0.7,0.5-1.1c0.2-0.3,0.4-0.7,0.7-1
		c0.3-0.3,0.6-0.6,0.9-0.8c0.3-0.2,0.7-0.4,1.1-0.6c0.4-0.2,0.8-0.3,1.2-0.4c0.4-0.1,0.8-0.1,1.2-0.1l0.6,0l0.6,0.1
		c0.4,0.1,0.8,0.2,1.2,0.4c0.4,0.2,0.7,0.4,1.1,0.6c0.3,0.2,0.7,0.5,1,0.8c0.3,0.3,0.5,0.6,0.8,1c0.2,0.4,0.4,0.7,0.6,1.1
		c0.1,0.4,0.2,0.8,0.3,1.2c0.1,0.4,0.1,0.8,0.1,1.2l0,0.2l-0.1,0.1c-0.2,0.1-0.4,0.2-0.5,0.3c-0.2,0.1-0.4,0.1-0.5,0.2
		c-0.4,0.1-0.7,0.2-1.1,0.3c-0.8,0.1-1.5,0.2-2.3,0.1c0.7-0.1,1.5-0.3,2.2-0.5c0.3-0.1,0.7-0.3,1-0.4c0.2-0.1,0.3-0.2,0.5-0.2
		c0.1-0.1,0.3-0.2,0.4-0.3l-0.1,0.3c0-0.4-0.1-0.7-0.2-1.1c-0.1-0.3-0.2-0.7-0.3-1c-0.1-0.3-0.3-0.6-0.5-0.9
		c-0.2-0.3-0.4-0.5-0.7-0.8c-0.3-0.2-0.5-0.5-0.8-0.7c-0.3-0.2-0.6-0.4-0.9-0.5c-0.3-0.1-0.7-0.2-1-0.3l-0.5-0.1l-0.5,0
		c-0.4,0-0.7,0-1.1,0.1c-0.3,0.1-0.7,0.2-1,0.3c-0.3,0.1-0.6,0.3-1,0.5c-0.3,0.2-0.6,0.4-0.9,0.6c-0.3,0.2-0.5,0.5-0.7,0.8
		c-0.2,0.3-0.4,0.6-0.6,0.9c-0.2,0.3-0.3,0.7-0.4,1C606.2,576.7,606.1,577,606,577.4z"/>
</g>
<ellipse transform="matrix(0.7618 -0.6478 0.6478 0.7618 -225.879 534.7182)" class="st2" cx="614.2" cy="574.5" rx="0.5" ry="1.6"/>
<g>
	<path class="st0" d="M585.5,580.2c0-6.5,5.3-11.7,11.7-11.7c6.5,0,11.7,5.3,11.7,11.7c0,0-2.9,2.1-8.6,2.4"/>
	<path class="st2" d="M585.5,580.2c-0.2-1.5,0-3.1,0.5-4.6c0.5-1.5,1.4-2.9,2.4-4.1c1.1-1.2,2.5-2.2,4-2.9c1.5-0.7,3.2-1,4.8-1.1
		l0.6,0l0.6,0c0.4,0,0.8,0.1,1.2,0.2c0.8,0.2,1.6,0.4,2.4,0.7c1.5,0.6,2.9,1.6,4.1,2.8c1.2,1.2,2.1,2.6,2.7,4.2
		c0.6,1.5,0.8,3.2,0.8,4.8l0,0.4l-0.3,0.2c-0.2,0.1-0.4,0.2-0.6,0.3c-0.2,0.1-0.4,0.2-0.5,0.3c-0.4,0.2-0.7,0.3-1.1,0.4
		c-0.7,0.3-1.5,0.4-2.2,0.6c-0.8,0.1-1.5,0.2-2.3,0.3c-0.8,0-1.5,0-2.3,0c0.7-0.1,1.5-0.3,2.2-0.4c0.7-0.2,1.4-0.4,2.1-0.6
		c0.7-0.2,1.4-0.5,2-0.8c0.3-0.2,0.6-0.3,1-0.5c0.2-0.1,0.3-0.2,0.5-0.3c0.1-0.1,0.3-0.2,0.4-0.3l-0.3,0.5c-0.1-1.5-0.4-2.9-1-4.2
		c-0.6-1.3-1.4-2.5-2.4-3.5c-1-1-2.2-1.8-3.5-2.3c-0.6-0.3-1.3-0.5-2-0.6c-0.3-0.1-0.7-0.1-1-0.2l-0.5,0l-0.6,0
		c-1.4,0-2.8,0.2-4.2,0.7c-1.3,0.5-2.6,1.3-3.7,2.2c-1.1,1-2,2.2-2.7,3.5C586.1,577.2,585.7,578.7,585.5,580.2z"/>
</g>
<ellipse transform="matrix(0.7618 -0.6478 0.6478 0.7618 -228.7228 526.7445)" class="st2" cx="601.9" cy="574.4" rx="1.1" ry="3.2"/>
<path class="st9" d="M514.3,355.4c0,0,9.6-13.7,16.2-17.2c6.6-3.5,6.3-2.2,6.6-3.5c0.3-1.3,1.8-0.2,0.3-1.3
	c-1.5-1.2-1.5-1.2-1.5-1.2s-0.1-0.3-1-1.6c-1-1.3,1.2-1.2-1-1.3s-4.2,0.8-4.7,1.2c-0.5,0.4,1.9-1.1-0.5,0.4
	c-2.4,1.5-2.4,1.5-2.4,1.5s-0.1-1.5-1.2,1.2c-1.2,2.8,0.2,2.4-3.2,5.8c-3.4,3.4-3.2,1.1-3.9,4.2
	C517.2,346.9,510.6,355.7,514.3,355.4z"/>
<path class="st10" d="M514.7,352.3c0,0,4.7-8.2,6.1-8.9c1.3-0.7,0.4-1,1.3-1.8c0.9-0.8,3.5-3,3.5-3s3.9-5.4,6.9-6.2
	c3-0.8,2.4-0.1,1.8-1.3c-0.5-1.2-0.4-1.7-2-1.2c-1.6,0.5-2.4,0.6-3.1,1.3s-1.4,1.3-2.2,1.7s-1,0.6-1.5,1.7c-0.5,1.1-0.7,2.4-2.2,4
	s-3,3.6-3.7,3.7c-0.7,0.1-1,0.1-1,0.6S513.5,354.4,514.7,352.3z"/>
<path class="st9" d="M337.2,372.7c0,0-11,0.6-15.3,3s-3.4,2.7-4.3,2.4c-0.8-0.3-0.7,1-0.8-0.3c-0.1-1.3-0.1-1.3-0.1-1.3
	s-0.1-0.1-0.5-1.1c-0.4-1-1.1,0.3-0.4-1c0.7-1.2,1.9-2.1,2.3-2.2s-1.3,0.7,0.4-0.1s1.7-0.8,1.7-0.8s-0.8-0.6,1.1-0.3
	c2,0.3,1.3,1,4.4,0.2c3.1-0.7,1.7-1.4,3.7-0.7S338.7,370.8,337.2,372.7z"/>
<path class="st10" d="M335.4,371.9c0,0-6.2-0.2-7.1,0.3c-0.8,0.5-0.7-0.1-1.5,0.1c-0.7,0.2-2.9,0.9-2.9,0.9s-4.4,0.3-5.9,1.7
	s-0.9,1.3-1.4,0.6c-0.5-0.7-0.8-0.9,0-1.5c0.8-0.7,1.2-1.1,1.8-1.3s1.2-0.3,1.7-0.6s0.7-0.3,1.5-0.2c0.8,0.1,1.6,0.4,3,0.2
	s3.1-0.4,3.4-0.7s0.4-0.5,0.7-0.4S337,372,335.4,371.9z"/>
<g>
	<g>
		<path class="st2" d="M113.6,53l247.2-22c15.9-1.4,28.9,8.7,29,22.7l1,166.1c0.1,14-12.8,26.4-28.7,27.8l-247.2,22
			c-15.9,1.4-28.9-8.7-29-22.7l-1-166.1C84.9,66.8,97.7,54.4,113.6,53z"/>
		<path d="M112,274.3c-7.9,0-15.2-2.4-20.9-6.9c-6.6-5.2-10.2-12.4-10.3-20.5l-1-166.1c-0.1-16.2,14.9-30.7,33.4-32.4l247.2-22
			c9.2-0.8,17.9,1.6,24.5,6.7c6.6,5.2,10.2,12.4,10.3,20.5l1,166.1c0.1,16.2-14.9,30.7-33.4,32.4l-247.2,22
			C114.3,274.2,113.1,274.3,112,274.3z M363.8,35.3c-0.8,0-1.6,0-2.4,0.1l-247.2,22c-13.3,1.2-24.1,11.6-24,23.3l1,166.1
			c0,5.4,2.5,10.3,6.8,13.8c4.4,3.4,10.2,5,16.4,4.4l247.2-22c13.3-1.2,24.1-11.6,24-23.3l-1-166.1c0-5.4-2.5-10.3-6.8-13.8
			C374,36.9,369.1,35.3,363.8,35.3z"/>
	</g>
</g>
<g>
	<polygon class="st2" points="295.9,236.8 333.1,268.1 326.4,230.1 	"/>
	<path d="M295.9,236.8c2,0.8,3.8,1.8,5.7,2.7c1.8,1,3.6,2,5.4,3c1.8,1,3.5,2.1,5.2,3.2c1.7,1.1,3.4,2.2,5.1,3.4
		c0.8,0.6,1.7,1.2,2.5,1.8c0.8,0.6,1.7,1.2,2.5,1.8c1.6,1.2,3.2,2.4,4.8,3.7c1.6,1.2,3.2,2.5,4.7,3.8c1.6,1.3,3.1,2.6,4.6,3.9
		l-8.4,4.8c-0.5-3.2-0.9-6.4-1.3-9.6c-0.1-1.6-0.3-3.2-0.4-4.8c-0.1-1.6-0.3-3.2-0.3-4.8c-0.2-3.2-0.3-6.5-0.2-9.7
		c0-1.6,0.1-3.3,0.2-4.9c0.1-1.6,0.2-3.3,0.4-5c0.8,1.5,1.5,3,2.1,4.5c0.7,1.5,1.3,3,1.9,4.6c1.2,3.1,2.2,6.1,3.1,9.2
		c0.5,1.5,0.9,3.1,1.4,4.7c0.4,1.6,0.8,3.1,1.2,4.7c0.8,3.1,1.5,6.3,2.1,9.4l2.9,14.2l-11.3-9.4c-1.6-1.3-3.1-2.5-4.7-3.9
		c-1.5-1.3-3.1-2.6-4.6-4c-1.5-1.3-3-2.7-4.5-4.1c-0.7-0.7-1.5-1.4-2.2-2.1c-0.7-0.7-1.5-1.4-2.2-2.1c-1.4-1.5-2.8-2.9-4.2-4.4
		c-1.4-1.5-2.7-3-4.1-4.6c-1.3-1.6-2.6-3.2-3.9-4.8C298.3,240.3,297.1,238.6,295.9,236.8z"/>
</g>
<g>
	<path d="M143.9,87.1l38.2-3l0.2,91.8l7.6-0.6l0.1,22.1l-7.6,0.6l0.1,25.4l-27.1,2.1l-0.1-25.4l-41.8,3.3l-0.1-31.5l30.5-80
		L143.9,87.1z M155.3,178.1l-0.1-53.6l-15.4,46.7l0,8.1L155.3,178.1z"/>
	<path d="M200.2,101.9c0-5.5,1.5-10.2,4.5-14.1c3-3.9,7.7-6.1,14-6.6l33.7-2.6c6.3-0.5,11,1,14,4.4c3,3.4,4.6,7.9,4.6,13.4
		l0.3,100.9c0,5.5-1.5,10.2-4.5,14.1c-3,3.9-7.7,6.1-14,6.6l-33.7,2.6c-6.3,0.5-11-1-14-4.4c-3-3.4-4.6-7.9-4.6-13.4L200.2,101.9z
		 M230.3,104.8c-1.6,0.1-2.5,1.1-2.5,2.9l0.2,84.9c0,1,0.2,1.7,0.5,2.2c0.3,0.4,1,0.6,2.2,0.5l10-0.8c1.1-0.1,1.9-0.4,2.2-0.8
		c0.3-0.5,0.5-1.2,0.5-2.2l-0.2-84.9c0-1.8-0.8-2.6-2.5-2.5L230.3,104.8z"/>
	<path d="M312,74l38.2-3l0.2,91.8l7.6-0.6l0.1,22.1l-7.6,0.6l0.1,25.4l-27.1,2.1l-0.1-25.4l-41.8,3.3l-0.1-31.5l30.5-80L312,74z
		 M323.4,164.9l-0.1-53.6l-15.4,46.7l0,8.1L323.4,164.9z"/>
</g>
</svg>
