<?xml version="1.0" encoding="utf-8"?>
<!-- Generator: Adobe Illustrator 19.2.0, SVG Export Plug-In . SVG Version: 6.00 Build 0)  -->
<svg version="1.1" id="Calque_1" xmlns="http://www.w3.org/2000/svg" xmlns:xlink="http://www.w3.org/1999/xlink" x="0px" y="0px"
	 viewBox="0 0 241.6 403.3" style="enable-background:new 0 0 241.6 403.3;" xml:space="preserve">
<style type="text/css">
	.st0{fill:#B2B2B2;}
	.st1{fill:url(#SVGID_1_);}
	.st2{fill:url(#SVGID_2_);}
	.st3{fill:#FFFFFF;}
	.st4{clip-path:url(#XMLID_2_);}
	.st5{fill:#DADADA;}
	.st6{fill:#D8D8D7;}
	.st7{fill:#D5D5D5;}
	.st8{fill:#D3D2D2;}
	.st9{fill:#D0D0D0;}
	.st10{fill:#CDCDCD;}
	.st11{fill:#CBCBCA;}
	.st12{fill:#C8C8C8;}
	.st13{fill:#C6C6C5;}
	.st14{fill:#C3C3C3;}
	.st15{fill:#C1C1C0;}
	.st16{fill:#BEBEBE;}
	.st17{fill:#BCBBBB;}
	.st18{fill:#B9B9B9;}
	.st19{fill:#B6B6B6;}
	.st20{fill:#B4B4B3;}
	.st21{fill:#B1B1B1;}
	.st22{fill:#AEAEAE;}
	.st23{fill:#ACABAB;}
	.st24{fill:#A9A9A8;}
	.st25{fill:#A6A6A6;}
	.st26{fill:#A3A3A3;}
	.st27{fill:#A1A0A0;}
	.st28{fill:#9E9E9D;}
	.st29{fill:#9B9B9A;}
	.st30{fill:#989898;}
	.st31{fill:#959595;}
	.st32{fill:#939292;}
	.st33{fill:#90908F;}
	.st34{fill:#8D8D8C;}
	.st35{fill:#8A8A8A;}
	.st36{fill:#878787;}
	.st37{clip-path:url(#XMLID_3_);fill:#951417;}
	.st38{clip-path:url(#XMLID_4_);}
	.st39{fill:#E94E1B;}
	.st40{clip-path:url(#XMLID_4_);fill:#951417;}
	.st41{clip-path:url(#XMLID_5_);fill:#951417;}
	.st42{fill:#951417;}
	.st43{stroke:#000000;stroke-linecap:round;stroke-linejoin:round;stroke-miterlimit:10;}
	.st44{fill:#FFFFFF;stroke:#FFFFFF;stroke-miterlimit:10;}
	.st45{clip-path:url(#XMLID_6_);fill:#951417;}
	.st46{fill:#BE1622;}
</style>
<ellipse class="st0" cx="101.7" cy="358.7" rx="47.2" ry="10.3"/>
<g>
	
		<linearGradient id="SVGID_1_" gradientUnits="userSpaceOnUse" x1="244.9446" y1="920.1895" x2="251.7108" y2="920.1895" gradientTransform="matrix(0.5356 0.8445 -0.8445 0.5356 683.5664 -368.4754)">
		<stop  offset="0" style="stop-color:#FFFFFF"/>
		<stop  offset="8.709777e-02" style="stop-color:#CC912E"/>
		<stop  offset="0.4201" style="stop-color:#D5A940"/>
		<stop  offset="0.712" style="stop-color:#EACE76"/>
		<stop  offset="0.9568" style="stop-color:#CC912E"/>
	</linearGradient>
	<path class="st1" d="M43.2,335.8l-3.7,2.3c-0.2,0.1-0.5,0.1-0.6-0.1l-3.1-4.9c-0.1-0.2-0.1-0.5,0.1-0.6l3.7-2.3
		c0.2-0.1,0.5-0.1,0.6,0.1l3.1,4.9C43.4,335.4,43.4,335.6,43.2,335.8z"/>
	
		<linearGradient id="SVGID_2_" gradientUnits="userSpaceOnUse" x1="245.179" y1="917.5978" x2="251.4493" y2="917.5767" gradientTransform="matrix(0.5356 0.8445 -0.8445 0.5356 683.5664 -368.4754)">
		<stop  offset="0" style="stop-color:#FFFFFF"/>
		<stop  offset="8.709777e-02" style="stop-color:#CC912E"/>
		<stop  offset="0.2747" style="stop-color:#D5A940"/>
		<stop  offset="0.4534" style="stop-color:#EACE76"/>
		<stop  offset="0.6733" style="stop-color:#D5A940"/>
		<stop  offset="0.883" style="stop-color:#CC912E"/>
		<stop  offset="1" style="stop-color:#FFFFFF"/>
	</linearGradient>
	<path class="st2" d="M43.4,335.4c-0.1,0.1-0.9-1.1-1.9-2.5s-1.6-2.7-1.5-2.8c0.1-0.1,0.9,1.1,1.9,2.5
		C42.8,334.1,43.5,335.3,43.4,335.4z"/>
	<path d="M82.2,311l-37.9,24c-0.5,0.3-1.1,0.2-1.4-0.3l-2.8-4.5c-0.1-0.2-0.1-0.5,0.1-0.6l38.4-24.4c0.5-0.3,1.1-0.2,1.4,0.3l2.5,4
		C82.9,310.1,82.7,310.7,82.2,311z"/>
	<g>
		<polygon class="st3" points="79.8,310.8 77.9,309.8 77.7,307.5 79.8,308.5 		"/>
		<polygon class="st3" points="76.7,312.8 74.7,311.8 74.6,309.5 76.6,310.6 		"/>
		<polygon class="st3" points="73.5,314.9 71.5,313.8 71.4,311.6 73.4,312.6 		"/>
		<polygon class="st3" points="70.3,316.9 68.4,315.8 68.2,313.6 70.3,314.6 		"/>
		<polygon class="st3" points="67.1,318.9 65.2,317.8 65.1,315.6 67.1,316.6 		"/>
		<polygon class="st3" points="64,320.9 62,319.8 61.9,317.6 63.9,318.6 		"/>
		<polygon class="st3" points="60.8,322.9 58.9,321.8 58.7,319.6 60.8,320.6 		"/>
		<polygon class="st3" points="57.6,324.9 55.7,323.8 55.6,321.6 57.6,322.6 		"/>
		<polygon class="st3" points="54.5,326.9 52.5,325.8 52.4,323.6 54.4,324.6 		"/>
		<polygon class="st3" points="51.3,328.9 49.4,327.8 49.2,325.6 51.3,326.6 		"/>
		<polygon class="st3" points="48.1,330.9 46.2,329.8 46,327.6 48.1,328.6 		"/>
		<polygon class="st3" points="45,332.9 43,331.9 42.9,329.6 44.9,330.7 		"/>
	</g>
</g>
<g>
	<defs>
		<path id="XMLID_21_" d="M123.6,277.9c0,0,57.4-35.3,95.1-96.3c0,0-4.5,34.9-7.2,39.6c-2.7,4.8-56.2,48.4-85.3,65.8"/>
	</defs>
	<clipPath id="XMLID_2_">
		<use xlink:href="#XMLID_21_"  style="overflow:visible;"/>
	</clipPath>
	<g class="st4">
		
			<ellipse transform="matrix(0.9463 -0.3234 0.3234 0.9463 -46.9966 80.5195)" class="st5" cx="218.8" cy="181.7" rx="2.1" ry="2.1"/>
		<ellipse transform="matrix(0.953 -0.3031 0.3031 0.953 -45.8816 74.3812)" class="st6" cx="216.7" cy="185" rx="2.1" ry="2.1"/>
		<ellipse transform="matrix(0.9588 -0.284 0.284 0.9588 -44.6748 68.6847)" class="st7" cx="214.5" cy="188.4" rx="2.1" ry="2.1"/>
		<ellipse transform="matrix(0.964 -0.2661 0.2661 0.964 -43.3874 63.3787)" class="st8" cx="212.2" cy="191.8" rx="2.1" ry="2.1"/>
		
			<ellipse transform="matrix(0.9685 -0.2491 0.2491 0.9685 -42.0265 58.4191)" class="st9" cx="209.8" cy="195.3" rx="2.1" ry="2.1"/>
		
			<ellipse transform="matrix(0.9725 -0.233 0.233 0.9725 -40.5963 53.7679)" class="st10" cx="207.3" cy="198.7" rx="2.1" ry="2.1"/>
		
			<ellipse transform="matrix(0.976 -0.2176 0.2176 0.976 -39.0984 49.3921)" class="st11" cx="204.7" cy="202.2" rx="2.1" ry="2.1"/>
		
			<ellipse transform="matrix(0.9792 -0.2029 0.2029 0.9792 -37.5329 45.2633)" class="st12" cx="202" cy="205.7" rx="2.1" ry="2.1"/>
		
			<ellipse transform="matrix(0.982 -0.1888 0.1888 0.982 -35.8981 41.3565)" class="st13" cx="199.2" cy="209.2" rx="2.1" ry="2.1"/>
		
			<ellipse transform="matrix(0.9846 -0.1751 0.1751 0.9846 -34.1912 37.6501)" class="st14" cx="196.3" cy="212.6" rx="2.1" ry="2.1"/>
		
			<ellipse transform="matrix(0.9868 -0.1617 0.1617 0.9868 -32.4083 34.125)" class="st15" cx="193.4" cy="216.1" rx="2.1" ry="2.1"/>
		
			<ellipse transform="matrix(0.9889 -0.1488 0.1488 0.9889 -30.5445 30.7644)" class="st16" cx="190.4" cy="219.6" rx="2.1" ry="2.1"/>
		<ellipse transform="matrix(0.9907 -0.136 0.136 0.9907 -28.5938 27.5536)" class="st17" cx="187.3" cy="223" rx="2.1" ry="2.1"/>
		
			<ellipse transform="matrix(0.9923 -0.1235 0.1235 0.9923 -26.5496 24.4793)" class="st18" cx="184.2" cy="226.4" rx="2.1" ry="2.1"/>
		
			<ellipse transform="matrix(0.9938 -0.1111 0.1111 0.9938 -24.4042 21.5299)" class="st19" cx="181" cy="229.8" rx="2.1" ry="2.1"/>
		
			<ellipse transform="matrix(0.9951 -9.873716e-02 9.873716e-02 0.9951 -22.1488 18.6952)" class="st20" cx="177.8" cy="233.1" rx="2.1" ry="2.1"/>
		
			<ellipse transform="matrix(0.9963 -8.640116e-02 8.640116e-02 0.9963 -19.7737 15.9658)" class="st21" cx="174.6" cy="236.4" rx="2.1" ry="2.1"/>
		
			<ellipse transform="matrix(0.9973 -7.401267e-02 7.401267e-02 0.9973 -17.2681 13.3336)" class="st22" cx="171.3" cy="239.7" rx="2.1" ry="2.1"/>
		
			<ellipse transform="matrix(0.9981 -6.150996e-02 6.150996e-02 0.9981 -14.6196 10.7913)" class="st23" cx="168" cy="242.8" rx="2.1" ry="2.1"/>
		
			<ellipse transform="matrix(0.9988 -4.882900e-02 4.882900e-02 0.9988 -11.8145 8.3324)" class="st24" cx="164.6" cy="246" rx="2.1" ry="2.1"/>
		
			<ellipse transform="matrix(0.9994 -3.590251e-02 3.590251e-02 0.9994 -8.8371 5.9514)" class="st25" cx="161.3" cy="249" rx="2.1" ry="2.1"/>
		
			<ellipse transform="matrix(0.9997 -2.265877e-02 2.265877e-02 0.9997 -5.6701 3.6435)" class="st26" cx="157.9" cy="252" rx="2.1" ry="2.1"/>
		
			<ellipse transform="matrix(1 -9.020383e-03 9.020383e-03 1 -2.2934 1.4048)" class="st27" cx="154.6" cy="254.9" rx="2.1" ry="2.1"/>
		
			<ellipse transform="matrix(5.097191e-03 -1 1 5.097191e-03 -107.2901 407.6945)" class="st28" cx="151.2" cy="257.8" rx="2.1" ry="2.1"/>
		
			<ellipse transform="matrix(1.978732e-02 -0.9998 0.9998 1.978732e-02 -115.4732 403.2263)" class="st29" cx="147.9" cy="260.5" rx="2.1" ry="2.1"/>
		
			<ellipse transform="matrix(3.515417e-02 -0.9994 0.9994 3.515417e-02 -123.4813 398.3899)" class="st30" cx="144.6" cy="263.1" rx="2.1" ry="2.1"/>
		
			<ellipse transform="matrix(5.131506e-02 -0.9987 0.9987 5.131506e-02 -131.3019 393.1506)" class="st31" cx="141.3" cy="265.7" rx="2.1" ry="2.1"/>
		
			<ellipse transform="matrix(6.840326e-02 -0.9977 0.9977 6.840326e-02 -138.9204 387.4683)" class="st32" cx="138" cy="268.1" rx="2.1" ry="2.1"/>
		
			<ellipse transform="matrix(8.657132e-02 -0.9962 0.9962 8.657132e-02 -146.3198 381.2958)" class="st33" cx="134.8" cy="270.4" rx="2.1" ry="2.1"/>
		
			<ellipse transform="matrix(0.106 -0.9944 0.9944 0.106 -153.4796 374.5777)" class="st34" cx="131.6" cy="272.6" rx="2.1" ry="2.1"/>
		
			<ellipse transform="matrix(0.1269 -0.9919 0.9919 0.1269 -160.375 367.2484)" class="st35" cx="128.4" cy="274.7" rx="2.1" ry="2.1"/>
		
			<ellipse transform="matrix(0.1495 -0.9888 0.9888 0.1495 -166.9746 359.2304)" class="st36" cx="125.3" cy="276.7" rx="2.1" ry="2.1"/>
	</g>
	<use xlink:href="#XMLID_21_"  style="overflow:visible;fill:none;stroke:#000000;stroke-width:2;stroke-miterlimit:10;"/>
</g>
<g>
	<defs>
		<path id="XMLID_15_" d="M115.2,320.5c0,0-6,14.5-3.9,21.8c1.2,4.1,4.1,4.7,5.8,5.5c1.3,0.6,4.2,0.5,3.8,4.2
			c-0.4,3.7-9.6,2.4-12.5,2.4c-2.9,0-6.8,0.4-7-5c-0.2-5.4,0.8-14.9-1.7-18.4c-2.5-3.5,0-8.5,0-8.5"/>
	</defs>
	<use xlink:href="#XMLID_15_"  style="overflow:visible;fill:#BE1622;"/>
	<clipPath id="XMLID_3_">
		<use xlink:href="#XMLID_15_"  style="overflow:visible;"/>
	</clipPath>
	<path class="st37" d="M106.8,329.5c0,0-4.8,13.4-4.5,19.7l-7-21.3L106.8,329.5z"/>
	<use xlink:href="#XMLID_15_"  style="overflow:visible;fill:none;stroke:#000000;stroke-width:3;stroke-miterlimit:10;"/>
</g>
<g>
	<defs>
		<path id="XMLID_13_" d="M106.9,235.3c0,0-4.3,6.9,1.5,13c5.8,6,19.4,27.9,17.8,55.7c-1.6,27.8-36.6,33.8-48.7,22.7
			c-16.6-15.2-6.1-31.2-6.3-51.2c-0.2-20.7-10.1-55.8-10.1-55.8S81.4,237.5,106.9,235.3z"/>
	</defs>
	<use xlink:href="#XMLID_13_"  style="overflow:visible;fill:#BE1622;"/>
	<clipPath id="XMLID_4_">
		<use xlink:href="#XMLID_13_"  style="overflow:visible;"/>
	</clipPath>
	<g class="st38">
		<g>
			<path class="st3" d="M107.6,266.7l42.6-8c2.7-0.5,5.2,1.3,5.4,4.1l2.9,33.1c0.2,2.8-1.8,5.5-4.5,6l-42.6,8
				c-2.7,0.5-5.2-1.3-5.4-4.1l-2.9-33.1C102.8,269.9,104.8,267.3,107.6,266.7z"/>
			<path d="M111,310.9c-1.4,0.1-2.7-0.3-3.8-1.1c-1.2-0.9-2-2.3-2.1-3.9l-2.9-33.1c-0.3-3.2,2.1-6.3,5.3-6.9l42.6-8
				c1.6-0.3,3.1,0.1,4.4,1c1.2,0.9,2,2.3,2.1,3.9l2.9,33.1c0.3,3.2-2.1,6.3-5.3,6.9l-42.6,8C111.4,310.9,111.2,310.9,111,310.9z
				 M150.8,259.6c-0.1,0-0.3,0-0.4,0.1l-42.6,8c-2.3,0.4-4,2.7-3.8,5l2.9,33.1c0.1,1.1,0.6,2,1.4,2.6c0.8,0.6,1.9,0.8,2.9,0.6
				l42.6-8c2.3-0.4,4-2.7,3.8-5l-2.9-33.1c-0.1-1.1-0.6-2-1.4-2.6C152.6,259.8,151.7,259.5,150.8,259.6z"/>
		</g>
		<g>
			<path d="M117.4,298.2l-6.6,1.2l3.7-5l-4.5-3.7l13.5-2.6c-0.9,0.8-2,1.5-3.2,2.2c-1.2,0.7-2.4,1.3-3.5,1.7L117.4,298.2z
				 M118.4,292.1l1,11.7l-1,0.2l-1-11.7c2.2-0.9,4.3-2.1,6.4-3.8C122.4,289.8,120.7,291,118.4,292.1z M119.3,291.9l-0.8,0.1
				c1.7-0.8,3.4-1.9,5.3-3.3C122.7,289.8,121.2,290.9,119.3,291.9z M120.1,291.8l-0.6,0.1c1.3-0.7,2.7-1.6,4.3-2.8
				C123,289.9,121.8,290.8,120.1,291.8z M120.9,291.6l-0.4,0.1c1-0.5,2.1-1.3,3.5-2.3C123.2,290,122.2,290.8,120.9,291.6z
				 M121.5,291.5l-0.3,0.1c0.7-0.4,1.6-1.1,2.7-1.9C123.4,290.3,122.6,290.9,121.5,291.5z M122.2,291.4l-0.2,0
				c0.6-0.4,1.3-0.9,2-1.5C123.5,290.4,122.9,290.9,122.2,291.4z M122.7,291.3l-0.1,0c0.5-0.4,1-0.7,1.4-1.1
				C123.7,290.6,123.3,290.9,122.7,291.3z M123.3,291.2l-0.1,0c0.2-0.2,0.5-0.4,0.8-0.7C123.8,290.8,123.5,291,123.3,291.2z
				 M123.9,291.1L123.9,291.1l0.2-0.2L123.9,291.1z"/>
			<path d="M118.3,292.1l4.9-0.9l1,11.7l-4.9,0.9L118.3,292.1z M119.5,302.1c0,0.2,0.1,0.4,0.3,0.5c0.2,0.1,0.4,0.2,0.6,0.1l2.5-0.5
				c0.2,0,0.4-0.2,0.5-0.4c0.1-0.2,0.2-0.4,0.2-0.6l-0.3-3.2l-1.4,0.3l0.2,2.3c0,0.2,0,0.3-0.2,0.3l-0.8,0.2c-0.2,0-0.2-0.1-0.3-0.2
				l-0.6-6.6c0-0.2,0.1-0.3,0.2-0.3l0.8-0.2c0.1,0,0.2,0.1,0.2,0.2l0.1,1.5l1.4-0.3l-0.2-2.4c0-0.2-0.1-0.4-0.3-0.5
				c-0.2-0.1-0.4-0.2-0.6-0.1l-2.5,0.5c-0.2,0-0.4,0.2-0.5,0.4c-0.1,0.2-0.2,0.4-0.2,0.6L119.5,302.1z"/>
			<path d="M123,291.2l4.9-0.9l1,11.7l-4.9,0.9L123,291.2z M124.3,301.1c0,0.2,0.1,0.4,0.3,0.5c0.2,0.1,0.4,0.2,0.6,0.1l2.5-0.5
				c0.2,0,0.4-0.2,0.5-0.3c0.1-0.2,0.2-0.4,0.2-0.6l-0.7-8.3c0-0.2-0.1-0.4-0.3-0.6c-0.2-0.1-0.3-0.2-0.6-0.1l-2.5,0.5
				c-0.2,0-0.4,0.2-0.5,0.3c-0.1,0.2-0.2,0.4-0.2,0.6L124.3,301.1z M126.3,293.2l0.6,6.6c0,0.1,0,0.1-0.1,0.2c0,0.1-0.1,0.1-0.2,0.1
				l-0.8,0.1c-0.1,0-0.2-0.1-0.2-0.2l-0.6-6.6c0-0.2,0-0.3,0.2-0.3l0.8-0.2C126.2,292.9,126.3,293,126.3,293.2z"/>
			<path d="M127.8,290.3l6.3-1.2l1,11.7l-6.3,1.2L127.8,290.3z M132.1,290.4l-0.6,4.9l-1.3-4.6l-1.9,0.4l0.8,10l1.4-0.3L130,295
				l1.9,5.5l0.8-6.1l0.5,5.8l1.4-0.3l-0.8-10L132.1,290.4z"/>
			<path d="M134,289.2l2.3-0.4l1,11.7l-2.3,0.4L134,289.2z M136.7,299.6l-0.8-10l-1.4,0.3l0.8,10L136.7,299.6z"/>
			<path d="M136.1,288.8l4.9-0.9l1,11.7l-4.9,0.9L136.1,288.8z M137.3,298.7c0,0.2,0.1,0.4,0.3,0.5c0.2,0.1,0.4,0.2,0.6,0.1l2.5-0.5
				c0.2,0,0.4-0.2,0.5-0.4c0.1-0.2,0.2-0.4,0.2-0.6l-0.3-3.2l-1.4,0.3l0.2,2.3c0,0.2,0,0.3-0.2,0.3l-0.8,0.2c-0.2,0-0.2-0.1-0.3-0.2
				l-0.6-6.6c0-0.2,0.1-0.3,0.2-0.3l0.8-0.2c0.1,0,0.2,0.1,0.2,0.2l0.1,1.5l1.4-0.3l-0.2-2.4c0-0.2-0.1-0.4-0.3-0.5
				s-0.4-0.2-0.6-0.1l-2.5,0.5c-0.2,0-0.4,0.2-0.5,0.4c-0.1,0.2-0.2,0.4-0.2,0.6L137.3,298.7z"/>
			<path d="M140.9,287.8l4.9-0.9l1,11.7l-4.9,0.9L140.9,287.8z M141.7,292.2l2.8,1.4l0.2,2.9c0,0.1,0,0.1-0.1,0.2
				c0,0.1-0.1,0.1-0.2,0.1l-0.7,0.1c-0.1,0-0.1,0-0.2-0.1c-0.1,0-0.1-0.1-0.1-0.2l-0.2-2l-1.4,0.3l0.2,2.9c0,0.2,0.1,0.4,0.3,0.5
				c0.2,0.1,0.4,0.2,0.6,0.1l2.5-0.5c0.2,0,0.4-0.2,0.5-0.3c0.1-0.2,0.2-0.4,0.2-0.6l-0.4-4.5l-2.8-1.3l-0.1-1.2
				c0-0.1,0-0.1,0.1-0.2c0-0.1,0.1-0.1,0.2-0.1l0.7-0.1c0.1,0,0.1,0,0.2,0.1c0.1,0,0.1,0.1,0.1,0.2l0.1,0.6l1.4-0.3l-0.1-1.5
				c0-0.2-0.1-0.4-0.3-0.6c-0.2-0.1-0.4-0.2-0.6-0.2l-2.5,0.5c-0.2,0-0.4,0.2-0.5,0.3c-0.1,0.2-0.2,0.4-0.2,0.6L141.7,292.2z"/>
			<path d="M141.9,287.7c-0.8-0.2-1.5-0.4-2-0.7c0.8,0.3,1.6,0.5,2.2,0.7L141.9,287.7z M140.2,288c-0.1,0-0.2-0.1-0.2-0.1L140.2,288
				L140.2,288z M142.5,287.5c-1.1-0.2-2-0.5-2.7-0.9c1.2,0.4,2.2,0.7,2.9,0.8L142.5,287.5z M141.3,287.8c-0.6-0.1-1-0.3-1.4-0.5
				c0.5,0.2,1,0.3,1.5,0.5L141.3,287.8z M140.7,287.9c-0.2-0.1-0.5-0.2-0.8-0.4c0.4,0.2,0.7,0.3,0.9,0.3L140.7,287.9z M143.2,287.4
				c-1.4-0.3-2.5-0.7-3.3-1.1c1.5,0.5,2.7,0.8,3.7,1L143.2,287.4z M143.9,287.3c-1.7-0.3-3.1-0.7-4.1-1.2c1.7,0.6,3.3,0.9,4.6,1.1
				L143.9,287.3z M144.7,287.1c-2-0.3-3.6-0.8-4.9-1.4c2,0.7,3.9,1.1,5.7,1.2L144.7,287.1z M145.7,286.9c-2.4-0.2-4.3-0.7-5.8-1.5
				c2.3,0.8,4.6,1.2,6.8,1.3l1,11.7l-1,0.2L145.7,286.9z M147.6,292.5l-0.5-6.1c-1.2,0-2.4-0.1-3.7-0.3c-1.3-0.2-2.4-0.6-3.5-1
				l13.5-2.6l-3.7,5.3l4.5,3.5L147.6,292.5z"/>
		</g>
		<g>
			<path d="M114.4,271.6l1.2,3.1l-2.4,0.4l1.2,14.2l-3.6,0.7l-1.2-14.2l-2.4,0.4l0.7-3.4L114.4,271.6z"/>
			<path d="M126.2,284.6c0,0.3,0,0.7,0,1c-0.1,0.3-0.2,0.6-0.3,0.9c-0.2,0.3-0.4,0.5-0.7,0.7c-0.3,0.2-0.7,0.3-1.2,0.4l-4.1,0.8
				c-0.5,0.1-0.9,0.1-1.2,0c-0.3-0.1-0.6-0.2-0.8-0.4c-0.2-0.2-0.4-0.4-0.5-0.7c-0.1-0.3-0.2-0.6-0.2-0.9l-1.1-12.7
				c-0.1-0.7,0.1-1.3,0.4-1.8c0.3-0.5,0.9-0.8,1.8-1l4.4-0.8c0.8-0.2,1.5-0.1,1.9,0.3c0.4,0.3,0.7,0.9,0.7,1.5L126.2,284.6z
				 M119.9,273.7c-0.2,0-0.3,0.2-0.3,0.4l0.9,10.6c0,0.1,0,0.2,0.1,0.3c0,0,0.1,0.1,0.3,0l1.3-0.3c0.1,0,0.2-0.1,0.3-0.1
				c0-0.1,0-0.2,0-0.3l-0.9-10.6c0-0.2-0.1-0.3-0.3-0.3L119.9,273.7z"/>
			<path d="M132.8,268.1c0.7-0.1,1.2,0,1.6,0.3c0.4,0.3,0.6,0.8,0.7,1.4l0.7,8.4c0,0.3,0,0.7,0,0.9c0,0.3-0.2,0.6-0.3,0.8
				c-0.2,0.2-0.4,0.5-0.7,0.6c-0.3,0.2-0.7,0.3-1.2,0.4l-3,0.6l0.4,4.6l-3.5,0.7l-1.5-17.5L132.8,268.1z M129.6,271.8l0.6,6.9
				l1.8-0.3c0.1,0,0.2-0.1,0.3-0.1c0-0.1,0-0.2,0-0.3l-0.5-6.2c0-0.2-0.1-0.3-0.3-0.3L129.6,271.8z"/>
			<path class="st39" d="M136.8,267.4l3.8-0.7l1.2,14.2l1.2-0.2l0.3,3.3l-6,1.1l-0.3-3.3l1.1-0.2l-0.9-11l-1.5,0.3L136.8,267.4z"/>
			<path class="st39" d="M142.7,268.7c-0.1-0.7,0.1-1.3,0.4-1.8c0.4-0.5,0.9-0.9,1.7-1l4.3-0.8c0.8-0.2,1.4,0,1.9,0.3
				c0.4,0.4,0.7,0.9,0.7,1.6l1.1,12.6c0.1,0.7-0.1,1.3-0.4,1.8c-0.4,0.5-0.9,0.9-1.7,1l-4.3,0.8c-0.8,0.2-1.4,0-1.9-0.3
				c-0.4-0.4-0.7-0.9-0.7-1.6L142.7,268.7z M146.6,268.6c-0.2,0-0.3,0.2-0.3,0.4l0.9,10.6c0,0.1,0,0.2,0.1,0.3c0,0,0.1,0.1,0.3,0
				l1.3-0.2c0.1,0,0.2-0.1,0.3-0.1c0-0.1,0-0.2,0-0.3l-0.9-10.6c0-0.2-0.1-0.3-0.3-0.3L146.6,268.6z"/>
		</g>
	</g>
	<path class="st40" d="M90.1,233.8c0,0,9.4,16.1,24.8,23.7c0,0-3.8-7.8-8.7-12.3c-4.9-4.5,0.7-9.8,0.7-9.8S100.4,236.7,90.1,233.8z"
		/>
	<use xlink:href="#XMLID_13_"  style="overflow:visible;fill:none;stroke:#000000;stroke-width:3;stroke-miterlimit:10;"/>
</g>
<g>
	<defs>
		<path id="XMLID_16_" d="M36.9,181.9c0,0-25.7-69.6-9.9-97.8S94.1,34.3,108.2,36s12.4,13.3,6.6,14.9s-5.8,1.7-5.8,1.7
			s36.5,0.8,43.9,18.2s8.3,56.4-4.1,102.8c0,0-2.5,10.8-1.7,19.1c0.8,8.3-22.4,34.8-35.6,41.4s-58.8-10.8-63.8-23.2
			C42.7,198.4,40.4,192.3,36.9,181.9z"/>
	</defs>
	<use xlink:href="#XMLID_16_"  style="overflow:visible;fill:#BE1622;"/>
	<clipPath id="XMLID_5_">
		<use xlink:href="#XMLID_16_"  style="overflow:visible;"/>
	</clipPath>
	<path class="st41" d="M118.5,42c0,0-1.5,3.6-6.9,5.3c-5.4,1.7-20.4,7-25.8,10.4c0,0,37.7-2.2,56.8,2.7c0,0-26.9-8.1-37.3-7.2
		C105.3,53.2,121.1,50.4,118.5,42z"/>
	<path class="st41" d="M51.5,58.9c0,0-29.7,31.5-13.1,54.9c0,0-4.6,3.7-12.6,25.7C25.8,139.6,7,84.1,51.5,58.9z"/>
	<use xlink:href="#XMLID_16_"  style="overflow:visible;fill:none;stroke:#000000;stroke-width:3;stroke-miterlimit:10;"/>
</g>
<path class="st42" d="M86.5,165.3c0,0,1,20.4-17.9,36.6c0,0-12.4,9.3-20.5-5.1C48.1,196.8,68.4,207.3,86.5,165.3z"/>
<path class="st42" d="M106.9,152.8c0,0-1,20.4,17.9,36.6c0,0,12.4,9.3,20.5-5.1C145.4,184.3,125,194.8,106.9,152.8z"/>
<path class="st43" d="M29.2,156.8c0,0,4.4-36.6,17.3-36.6s39.8,20.7,41.4,34.8c1.7,14.1-17.4,44.8-26.1,46s-21.7-9.6-23.3-14.3
	C36.9,181.9,29.2,156.8,29.2,156.8z"/>
<path class="st43" d="M157.1,129.7c0,0-17-22.8-24.5-16.6c-7.5,6.2-26.5,26.9-25.7,39.8s14.5,31.5,27.4,35.6s14.5-14.9,14.5-14.9
	L157.1,129.7z"/>
<g>
	<path class="st3" d="M124.5,155.9c0,0-0.8-0.3-2-0.4c-0.3,0-0.6-0.1-0.9-0.1c-0.3,0-0.6,0-1,0c-0.3,0-0.7,0.1-1,0.1
		c-0.3,0.1-0.7,0.1-1,0.2c-0.3,0.1-0.7,0.2-1,0.3c-0.3,0.1-0.7,0.2-1,0.4c-0.3,0.1-0.6,0.3-1,0.4c-0.3,0.1-0.6,0.3-0.9,0.4
		c-0.6,0.2-1,0.5-1.3,0.6c-0.3,0.1-0.6,0.2-0.6,0.2s0.1-0.2,0.3-0.5c0.2-0.3,0.5-0.8,0.9-1.2c0.2-0.2,0.5-0.5,0.7-0.7
		c0.3-0.2,0.6-0.5,0.9-0.7c0.3-0.2,0.7-0.4,1.1-0.6c0.4-0.2,0.8-0.3,1.3-0.4c0.4-0.1,0.9-0.2,1.3-0.2c0.4,0,0.9,0,1.3,0.1
		c0.4,0,0.8,0.2,1.2,0.3c0.4,0.1,0.7,0.3,1,0.5c0.6,0.3,1,0.7,1.2,1C124.4,155.7,124.5,155.9,124.5,155.9z"/>
</g>
<path class="st42" d="M91.7,184.4c0,0,10.2,2,14.5-1.1c0,0-0.6,9.5-1.9,10.9s-7.3-0.4-9.3,1.4C95,195.6,87.9,183.9,91.7,184.4z"/>
<path class="st44" d="M82,156.3c0,0-10.9-12.4-21.6,0.7C60.4,157,71.9,170.7,82,156.3z"/>
<g>
	<path class="st3" d="M119.8,151.3c0,0-0.5,0-1.2,0.1c-0.3,0.1-0.7,0.2-1.1,0.4c-0.2,0.1-0.4,0.2-0.6,0.3c-0.2,0.1-0.4,0.2-0.6,0.4
		c-0.2,0.1-0.4,0.2-0.5,0.4c-0.2,0.2-0.4,0.3-0.5,0.4c-0.1,0.2-0.3,0.3-0.5,0.4c-0.1,0.2-0.3,0.3-0.4,0.4c-0.3,0.3-0.4,0.5-0.6,0.7
		c-0.2,0.2-0.3,0.3-0.3,0.3s0-0.1,0.1-0.3c0.1-0.2,0.1-0.5,0.3-0.9c0.2-0.4,0.4-0.8,0.7-1.2c0.1-0.2,0.3-0.4,0.5-0.6
		c0.2-0.2,0.4-0.3,0.6-0.5c0.5-0.3,0.9-0.5,1.5-0.7c0.5-0.1,1-0.1,1.4-0.1C119.3,151,119.8,151.3,119.8,151.3z"/>
</g>
<g>
	<defs>
		<path id="XMLID_14_" d="M62.7,232.2c0,0,4-21.8,10.5-21.4c6.6,0.4,11.5,23.2,11.5,23.2s14.4,10.2,13.3,19.8
			c-1.1,9.6-10.6,27.3-18.7,25.6C71.1,277.7,55.6,275.7,62.7,232.2z"/>
	</defs>
	<use xlink:href="#XMLID_14_"  style="overflow:visible;fill:#BE1622;"/>
	<clipPath id="XMLID_6_">
		<use xlink:href="#XMLID_14_"  style="overflow:visible;"/>
	</clipPath>
	<path class="st45" d="M73.2,210.8c0,0,0.3,10.5-0.2,16.2s9.4,12.9,9.5,15.5s-2.1,4.5-2.1,6.7c0,2.2,0.2,6.2-0.8,7.7
		c-1,1.5,0.2,5.7-0.9,7.8c-1.1,2.1-0.3,8.3-2.1,9.6s-3.2,2.7-3.2,2.7s-21-4.5-9.2-50.9C64.1,226.1,68.8,208.7,73.2,210.8z"/>
	<path class="st45" d="M82.3,278.3c0,0,5-2.2,2.8-6.2c0,0,2.2,2.5,4.5-0.9c2.3-3.3,2.1-3.9,0.6-5.2c0,0,3.1,1.1,3.8-1.6
		c0.7-2.7-1.1-5-1.1-5s3.2,2.1,3.8-0.2C97.3,257,91.1,277.9,82.3,278.3z"/>
	<use xlink:href="#XMLID_14_"  style="overflow:visible;fill:none;stroke:#000000;stroke-width:3;stroke-miterlimit:10;"/>
</g>
<g>
	<path class="st46" d="M71.2,230.4c0,0,8.4,1.8,16.8,8.1"/>
	<path d="M71.2,230.4c0,0,0.3-0.1,0.9-0.1c0.5,0,1.3,0,2.2,0.1c1.8,0.2,4.2,0.9,6.4,1.9c2.2,1,4.1,2.5,5.4,3.8
		c1.3,1.3,1.9,2.4,1.9,2.4s-0.3-0.1-0.8-0.2c-0.3-0.1-0.6-0.2-0.9-0.3c-0.3-0.1-0.7-0.2-1.1-0.4c-0.4-0.2-0.8-0.3-1.3-0.5
		c-0.5-0.2-0.9-0.4-1.4-0.6c-0.5-0.2-1-0.4-1.5-0.7c-0.5-0.2-1-0.5-1.5-0.7c-2-1-4.1-2.1-5.6-3c-0.8-0.5-1.4-0.8-1.8-1.1
		C71.4,230.6,71.2,230.4,71.2,230.4z"/>
</g>
<g>
	<path class="st46" d="M106,325.2c0,0-2.9,4-3.7,7.3c-0.8,3.3-5,16.1-4.6,19.5c0.4,3.3,4.8,3.6,6.5,7c1.7,3.4-3.8,5-9.2,4.7
		c-5.4-0.3-10.3-2.8-10.7-5.8s1.5-15.1-1-21c-2.5-5.9-7.8-10.5-7.8-10.5"/>
	<path d="M106,325.2c0,0-0.8,1.3-1.9,3.7c-0.5,1.2-1.1,2.7-1.4,4.5c-0.4,1.8-0.9,3.9-1.5,6.1c-0.5,2.2-1.1,4.6-1.6,7.1
		c-0.2,1.3-0.5,2.6-0.6,3.8c0,0.3,0,0.6,0,0.9l0,0.4l0.1,0.4c0,0.1,0,0.2,0.1,0.2c0,0,0,0.1,0.1,0.1c0,0.1,0.1,0.2,0.2,0.3
		c0.1,0.2,0.3,0.4,0.5,0.6c0.8,0.8,2.2,1.4,3.5,2.5c0.7,0.5,1.3,1.2,1.8,1.9l0.4,0.6c0,0.1,0-0.1,0.1,0.2l0,0l0,0.1l0.1,0.1l0.1,0.3
		l0.1,0.1l0.1,0.3c0,0.2,0.1,0.3,0.1,0.5c0.1,0.4,0,0.7-0.1,1c0,0.3-0.2,0.6-0.3,0.9c-0.1,0.3-0.3,0.5-0.5,0.7
		c-0.4,0.4-0.8,0.8-1.2,1c-0.8,0.5-1.7,0.8-2.5,1c-1.6,0.5-3.3,0.6-4.9,0.6c-0.4,0-0.8,0-1.2,0l-0.3,0l-0.3,0l-0.6,0
		c-0.4,0-0.8-0.1-1.2-0.2c-0.4-0.1-0.8-0.1-1.2-0.2c-1.6-0.4-3.2-0.9-4.6-1.7c-1.4-0.8-2.9-1.8-3.8-3.8c-0.1-0.2-0.2-0.5-0.2-0.7
		l-0.1-0.4l0-0.3c0-0.3,0-0.8,0-1.2c0-0.8,0.1-1.5,0.1-2.2c0.2-2.9,0.4-5.6,0.5-8.2c0.1-2.6,0-5-0.4-7.1c-0.2-1.1-0.5-2-0.9-3
		c-0.4-0.9-0.8-1.8-1.3-2.6c-0.9-1.6-1.8-2.9-2.6-3.9c-1.6-2.1-2.7-3.2-2.7-3.2s0.3,0.2,0.9,0.7c0.6,0.5,1.4,1.1,2.3,2.1
		c0.9,1,2.1,2.2,3.2,3.7c0.6,0.8,1.1,1.6,1.6,2.6c0.5,0.9,1,2,1.3,3.2c0.7,2.3,0.9,4.9,1,7.5c0.1,2.7,0,5.5-0.1,8.3
		c0,0.7,0,1.4,0,2.1c0,0.3,0,0.6,0.1,1l0,0.1l0,0.1l0,0c0,0,0,0.1,0,0l0,0.1c0,0.1,0,0.2,0.1,0.3c0.4,0.8,1.4,1.7,2.6,2.3
		c1.2,0.6,2.5,1.1,3.9,1.4c0.3,0.1,0.7,0.1,1,0.2c0.3,0,0.6,0.1,1,0.1l0.6,0l0.2,0l0.3,0c0.4,0,0.7,0,1.1,0c1.4,0,2.9-0.1,4.1-0.5
		c0.7-0.2,1.2-0.4,1.7-0.7c0.5-0.3,0.7-0.6,0.7-0.8c0,0,0-0.1,0-0.1c0,0,0,0,0,0l0,0l0-0.1l-0.1-0.3l0-0.1l0-0.1l0,0
		c0.1,0.3,0,0.1,0,0.1l-0.2-0.4c-0.3-0.5-0.7-0.9-1.2-1.3c-0.9-0.8-2.3-1.5-3.5-2.7c-0.3-0.3-0.6-0.7-0.9-1.1
		c-0.1-0.2-0.2-0.4-0.3-0.7l-0.1-0.4c-0.1-0.1-0.1-0.3-0.1-0.3l-0.1-0.3l0-0.1l0-0.1c0,0.1,0-0.1,0-0.1l0,0l0-0.7
		c0-0.4,0.1-0.8,0.1-1.2c0.2-1.5,0.5-2.8,0.9-4.1c0.7-2.6,1.4-4.9,2.2-7.1c0.7-2.2,1.4-4.1,2-5.9c0.3-0.9,0.6-1.8,0.9-2.5
		c0.4-0.7,0.7-1.4,1.1-2c0.7-1.2,1.3-2,1.8-2.6C105.8,325.5,106,325.2,106,325.2z"/>
</g>
<path class="st42" d="M93.9,340.3c0,0,1.7,1.5,4.5,0.4C98.4,340.7,95.6,347.1,93.9,340.3z"/>
<path d="M92,268.7c0,0-9.2,40.6-5.4,55.1c0,0,0.1,2.3-7.1,2.6c-4,0.2-4,0-4,0s-9.8-12.1-6-30.2c2.4-11.5,0.6-20.3,5.5-16.8
	C74.9,279.3,87.9,282.2,92,268.7z"/>
</svg>
